<svg width="37" height="12" viewBox="0 0 37 12" fill="none" xmlns="http://www.w3.org/2000/svg">
<path d="M28.7014 0.803755L29.395 0.193726C29.6888 -0.0645752 30.1637 -0.0645752 30.4543 0.193726L36.5286 5.53286C36.8223 5.79116 36.8223 6.20884 36.5286 6.46439L30.4543 11.8063C30.1606 12.0646 29.6856 12.0646 29.395 11.8063L28.7014 11.1962C28.4045 10.9352 28.4108 10.5093 28.7139 10.2537L32.4791 7.09915H1C0.584421 7.09915 0.250084 6.80513 0.250084 6.43966V5.56034C0.250084 5.19487 0.584421 4.90085 1 4.90085H32.4791L28.7139 1.74628C28.4076 1.49073 28.4014 1.0648 28.7014 0.803755Z" fill="#8C8C8C"/>
</svg>
