<svg width="142" height="172" viewBox="0 0 142 172" fill="none" xmlns="http://www.w3.org/2000/svg">
<rect x="1" y="1" width="140" height="170" stroke="white" stroke-width="2" stroke-linejoin="round" stroke-dasharray="5 10"/>
<g clip-path="url(#clip0)">
<path d="M102.966 76.9245H40.0339V104.877H102.966V76.9245Z" fill="white"/>
<path d="M106.22 104.491C113.694 102.685 118.294 95.1374 116.495 87.633C114.696 80.1287 107.179 75.5094 99.7052 77.3156C92.2311 79.1219 87.6306 86.6696 89.4295 94.174C91.2284 101.678 98.7456 106.298 106.22 104.491Z" fill="white"/>
<path d="M49.8772 100.786C55.3132 95.3278 55.3132 86.4785 49.8772 81.0204C44.4412 75.5623 35.6277 75.5623 30.1917 81.0204C24.7557 86.4785 24.7557 95.3278 30.1917 100.786C35.6277 106.244 44.4412 106.244 49.8772 100.786Z" fill="white"/>
<path d="M94.3591 87.8007C100.342 86.4043 104.065 80.4021 102.675 74.3945C101.284 68.3869 95.3059 64.6488 89.3227 66.0453C83.3394 67.4417 79.6164 73.4439 81.0072 79.4515C82.398 85.4591 88.3758 89.1971 94.3591 87.8007Z" fill="white"/>
<path d="M48.7501 83.978C52.6299 83.978 55.7751 80.8201 55.7751 76.9245C55.7751 73.029 52.6299 69.871 48.7501 69.871C44.8703 69.871 41.7251 73.029 41.7251 76.9245C41.7251 80.8201 44.8703 83.978 48.7501 83.978Z" fill="white"/>
<path d="M71.7953 89.4584C83.0005 86.7236 89.8762 75.386 87.1524 64.1352C84.4286 52.8844 73.1369 45.9809 61.9316 48.7157C50.7264 51.4505 43.8507 62.7881 46.5745 74.0389C49.2983 85.2897 60.59 92.1933 71.7953 89.4584Z" fill="white"/>
<path d="M40.0339 106.837C31.2852 106.837 24.1626 99.6852 24.1626 90.901C24.1626 82.1167 31.2527 74.9652 40.0014 74.9652C40.5218 72.614 41.9528 70.5567 44.0017 69.2832C44.0017 69.2179 44.0017 69.1526 44.0017 69.0873C44.0017 56.4497 54.2465 46.1633 66.8329 46.1633C77.5981 46.1633 86.8021 53.7066 89.1113 64.0583C89.9894 63.8624 90.9 63.7645 91.8107 63.7645C98.4129 63.7645 103.877 68.6954 104.755 75.0632C112.658 75.9775 118.805 82.7371 118.805 90.901C118.805 99.6852 111.682 106.837 102.934 106.837H40.0339Z" stroke="#6DCDFC" stroke-miterlimit="10"/>
<path d="M78.8014 83.2596H64.2311V104.877H78.8014V83.2596Z" fill="#08A0FF"/>
<path d="M70.8008 71.2752L58.4745 85.9374C57.9867 86.5252 58.4095 87.4395 59.1575 87.4395H83.8425C84.6231 87.4395 85.0459 86.5252 84.5255 85.9374L72.1993 71.2752C71.8415 70.818 71.1585 70.818 70.8008 71.2752Z" fill="#08A0FF"/>
</g>
<defs>
<clipPath id="clip0">
<rect width="95" height="61" fill="white" transform="translate(24 46)"/>
</clipPath>
</defs>
</svg>
