<svg width="179" height="157" viewBox="0 0 179 157" fill="none" xmlns="http://www.w3.org/2000/svg">
<g clip-path="url(#clip0)" filter="url(#filter0_d)">
<path d="M17.7963 16.3187L9.02372 132.186L96.2316 138.995L105.004 23.1277L17.7963 16.3187Z" fill="#CCB7A3"/>
<path opacity="0.09" d="M95.2616 38.5594L67.4 42.1527C62.8923 42.7308 58.3077 42.3715 53.9385 41.106L26.9385 33.2163C21.5692 31.8571 17.9385 26.5453 18.3846 20.671L18.6462 17.1402L104.938 23.1239L104.723 27.6233C104.292 33.4819 100.785 38.0439 95.2616 38.5594Z" fill="#272525"/>
<path d="M94.3385 37.7314L66.4769 41.3247C61.9692 41.9028 57.3846 41.5434 53.0154 40.278L26.0154 32.4039C20.6461 31.0291 17.0154 25.7173 17.4615 19.8586L17.7231 16.3278L104.938 23.1395L104.677 26.6703C104.231 32.5289 99.8462 37.2158 94.3385 37.7314Z" fill="#D3BFAF"/>
<path d="M58.6923 61.994C54.8923 61.6972 52.0308 58.3226 52.3231 54.4637L53.6 37.6845C53.8923 33.8256 57.2154 30.9198 61.0154 31.2166C64.8154 31.5134 67.6769 34.888 67.3846 38.7469L66.1077 55.5261C65.8308 59.4006 62.4923 62.2908 58.6923 61.994ZM60.9846 31.8415C57.5077 31.5759 54.4769 34.2162 54.2 37.747L52.9231 54.5106C52.6615 58.0414 55.2615 61.1191 58.7385 61.4003C62.2154 61.6659 65.2461 59.0256 65.5231 55.4948L66.8 38.7157C67.0615 35.2005 64.4461 32.1071 60.9846 31.8415Z" fill="#F9DD82"/>
<path d="M65.353 40.6197C67.9364 37.9962 67.9364 33.7427 65.353 31.1192C62.7695 28.4957 58.5809 28.4957 55.9975 31.1192C53.414 33.7427 53.414 37.9962 55.9975 40.6197C58.5809 43.2431 62.7695 43.2431 65.353 40.6197Z" fill="#AA7355"/>
<path d="M63.8026 37.1879C64.5208 35.4353 63.7039 33.4232 61.978 32.6939C60.2521 31.9646 58.2708 32.7942 57.5526 34.5469C56.8344 36.2995 57.6513 38.3115 59.3772 39.0408C61.1031 39.7701 63.0844 38.9406 63.8026 37.1879Z" fill="#BDB39B"/>
<path d="M62.2462 35.9972C62.1846 36.8721 61.4154 37.5439 60.5539 37.4658C59.6923 37.4033 59.0308 36.6222 59.1077 35.7473C59.1692 34.8724 59.9385 34.2006 60.8 34.2787C61.6615 34.3412 62.3077 35.1067 62.2462 35.9972Z" fill="#434244"/>
<path d="M63.7482 61.744C66.3316 59.1205 66.3316 54.867 63.7482 52.2435C61.1647 49.62 56.9761 49.62 54.3927 52.2435C51.8093 54.867 51.8093 59.1205 54.3927 61.744C56.9761 64.3675 61.1647 64.3675 63.7482 61.744Z" fill="#AA7355"/>
<path d="M59.5857 60.3954C61.4336 60.1094 62.7033 58.3562 62.4216 56.4796C62.1399 54.603 60.4135 53.3136 58.5656 53.5996C56.7176 53.8857 55.4479 55.6389 55.7296 57.5155C56.0113 59.3921 57.7377 60.6815 59.5857 60.3954Z" fill="#BDB39B"/>
<path d="M60.6462 57.1196C60.5846 57.9945 59.8154 58.6663 58.9538 58.5882C58.0923 58.5257 57.4308 57.7445 57.5077 56.8696C57.5692 55.9947 58.3385 55.323 59.2 55.4011C60.0615 55.4792 60.7077 56.2447 60.6462 57.1196Z" fill="#434244"/>
<path d="M85.9077 14H4V128.72H85.9077V14Z" fill="#FFFFF5"/>
<path d="M29.1692 36.8253C44.4769 36.8253 59.7846 36.8253 75.0923 36.8253C76.3384 36.8253 76.3384 34.8568 75.0923 34.8568C59.7846 34.8568 44.4769 34.8568 29.1692 34.8568C27.9231 34.8568 27.9231 36.8253 29.1692 36.8253Z" fill="#BBBCBF"/>
<path d="M14.6615 48.4801C34.8 48.4801 54.9538 48.4801 75.0923 48.4801C76.3385 48.4801 76.3385 46.5116 75.0923 46.5116C54.9538 46.5116 34.8 46.5116 14.6615 46.5116C13.4154 46.5116 13.4154 48.4801 14.6615 48.4801Z" fill="#BBBCBF"/>
<path d="M14.6615 60.1349C34.8 60.1349 54.9538 60.1349 75.0923 60.1349C76.3385 60.1349 76.3385 58.1664 75.0923 58.1664C54.9538 58.1664 34.8 58.1664 14.6615 58.1664C13.4154 58.1664 13.4154 60.1349 14.6615 60.1349Z" fill="#BBBCBF"/>
<path d="M14.6615 71.7896C34.8 71.7896 54.9538 71.7896 75.0923 71.7896C76.3385 71.7896 76.3385 69.8212 75.0923 69.8212C54.9538 69.8212 34.8 69.8212 14.6615 69.8212C13.4154 69.8212 13.4154 71.7896 14.6615 71.7896Z" fill="#BBBCBF"/>
<path d="M14.6615 83.4445C34.8 83.4445 54.9538 83.4445 75.0923 83.4445C76.3385 83.4445 76.3385 81.4759 75.0923 81.4759C54.9538 81.4759 34.8 81.4759 14.6615 81.4759C13.4154 81.4759 13.4154 83.4445 14.6615 83.4445Z" fill="#BBBCBF"/>
<path d="M16 112.691C24.6154 112.691 33.2154 112.691 41.8308 112.691C42.5385 112.691 42.5385 111.582 41.8308 111.582C33.2154 111.582 24.6154 111.582 16 111.582C15.3077 111.582 15.3077 112.691 16 112.691Z" fill="#51927E"/>
<path d="M36.8462 107.676C35.9231 108.019 34.9846 108.144 34 108.051L33.8615 107.66C33.7538 107.363 33.2769 107.301 33.2 107.66C33.1846 107.77 32.9538 108.785 32.5692 108.285C32.3538 107.988 32.4769 107.535 32.5077 107.207C32.5538 106.848 32.5385 106.395 32.3077 106.098C32.0308 105.754 31.2615 105.41 30.9077 105.864C30.3538 106.567 31.1846 107.504 30.5385 108.254C30.1538 108.691 29.4615 108.41 29.1077 108.051C29.5692 107.254 29.4769 106.348 29.0615 105.535C28.9385 105.301 28.5692 105.301 28.4462 105.535C28.1077 106.254 27.9231 107.207 28.2154 107.973C27.9077 108.191 27.4769 108.238 27.1385 108.035C27.7385 107.098 27.9692 105.91 27.6462 104.692C27.5538 104.364 27.1538 104.348 26.9692 104.598C26.4154 105.379 25.9077 106.207 25.9692 107.207C25.9846 107.52 26.0769 107.801 26.2154 108.051C25.6769 108.66 24.9231 109.082 24.0462 109.176C24.0308 109.129 24.0154 109.066 24 109.019C23.9385 108.816 23.8769 108.613 23.8 108.41C23.8 107.926 23.8 107.441 23.8308 106.973C23.9077 106.848 23.9846 106.738 24.0769 106.613C24.4769 106.035 24.8154 105.41 25.1231 104.77C26.3538 102.223 26.8308 99.3175 26.5231 96.5053C26.4923 96.1772 26.1692 96.0366 25.9077 96.2553C25.1538 96.8646 24.8154 97.7552 24.5385 98.6613C24.1692 99.8486 23.8769 101.067 23.6462 102.286C23.3692 103.739 23.2 105.223 23.1385 106.692C23.1077 106.738 23.0769 106.77 23.0462 106.817C22.6462 107.395 22.8769 108.019 23.0923 108.613C23.0923 108.926 23.1077 109.238 23.1077 109.551C23.1077 109.754 23.2615 109.894 23.4615 109.91H23.4769C23.6308 110.566 23.7385 111.238 23.8154 111.91C24.0308 113.831 23.8308 115.784 23.3231 117.643C22.6308 117.315 22.5385 113.597 22.5077 113.081C22.4615 111.769 22.5538 110.488 22.6462 109.191C22.7538 109.129 22.8154 109.019 22.7846 108.863L22.6923 108.316C22.6308 107.988 22.1077 107.988 22.0462 108.316C21.7692 109.879 21.7385 111.503 21.7846 113.081C21.8 113.909 21.8769 114.737 21.9692 115.55C22.0462 116.222 22.0923 116.925 22.3538 117.55C22.6615 118.268 23.6923 118.878 24 117.846C24.4154 116.425 24.6 114.925 24.6 113.425C24.6 112.222 24.4462 111.035 24.1846 109.863C25.1692 109.754 26.0308 109.285 26.6769 108.598C26.8154 108.707 26.9692 108.785 27.1385 108.848C27.5846 109.019 28.1538 108.863 28.5692 108.566C28.6462 108.644 28.7231 108.707 28.8154 108.769C29.6615 109.347 31.0154 109.269 31.3538 108.113C31.5231 107.535 31.4769 106.973 31.3692 106.395C31.4769 106.332 31.5846 106.363 31.6769 106.473C31.8769 106.645 31.7692 107.223 31.7385 107.441C31.7077 107.77 31.6769 108.144 31.8462 108.457C32.0615 108.863 32.3846 109.16 32.8615 109.144C33.1538 109.129 33.3538 108.91 33.5077 108.644C33.5538 108.676 33.6154 108.691 33.6769 108.691C34.8 108.848 35.8923 108.723 36.9538 108.332C37.4308 108.207 37.2615 107.52 36.8462 107.676ZM24.3231 102.708C24.5077 101.661 24.7538 100.614 25.0308 99.583C25.2462 98.8019 25.4615 97.9895 25.9231 97.3333C26.0615 100.192 25.3692 102.942 23.9692 105.41C24.0615 104.504 24.1692 103.614 24.3231 102.708ZM27.0923 105.848C27.0923 106.395 26.9538 106.926 26.7077 107.395C26.6 106.91 26.8154 106.348 27.0923 105.848Z" fill="#3B464C"/>
<path d="M38.6 109.144C38.2154 109.144 38.2154 109.754 38.6 109.754C38.9846 109.754 38.9846 109.144 38.6 109.144Z" fill="#3B464C"/>
</g>
<g clip-path="url(#clip1)" filter="url(#filter1_d)">
<path d="M94.8061 7.33696L48.523 113.404L128.417 148.467L174.7 42.4007L94.8061 7.33696Z" fill="#CCB7A3"/>
<path opacity="0.09" d="M160.461 53.7092L133.043 47.9311C128.608 46.9932 124.409 45.1486 120.709 42.5227L97.8709 26.2304C93.2604 23.1877 91.5842 16.9997 93.932 11.6228L95.3369 8.38872L174.639 42.3755L172.96 46.5355C170.632 51.9028 165.832 55.0396 160.461 53.7092Z" fill="#272525"/>
<path d="M159.863 52.6272L132.446 46.8492C128.011 45.9112 123.811 44.0666 120.112 41.4407L97.2682 25.1631C92.6628 22.1057 90.9866 15.9178 93.3293 10.5555L94.7342 7.32145L174.634 42.3902L173.229 45.6243C170.887 50.9865 165.219 53.9526 159.863 52.6272Z" fill="#D3BFAF"/>
<path d="M118.332 63.726C114.851 62.198 113.263 58.0845 114.805 54.552L121.513 39.1943C123.055 35.6618 127.138 34.0216 130.619 35.5496C134.1 37.0776 135.688 41.1911 134.146 44.7236L127.438 60.0813C125.905 63.6335 121.813 65.254 118.332 63.726ZM130.385 36.1271C127.198 34.7346 123.477 36.2212 122.058 39.4502L115.354 54.7933C113.949 58.0273 115.388 61.7758 118.57 63.183C121.757 64.5754 125.478 63.0888 126.897 59.8598L133.606 44.5021C135.006 41.2827 133.558 37.5145 130.385 36.1271Z" fill="#F9DD82"/>
<path d="M131.618 45.8168C134.912 44.199 136.308 40.1995 134.736 36.8835C133.164 33.5676 129.219 32.191 125.925 33.8088C122.632 35.4266 121.236 39.4262 122.808 42.7421C124.38 46.058 128.325 47.4346 131.618 45.8168Z" fill="#AA7355"/>
<path d="M131.285 42.0804C132.536 40.6684 132.427 38.5081 131.041 37.2551C129.655 36.0021 127.517 36.131 126.265 37.543C125.014 38.9549 125.123 41.1153 126.509 42.3683C127.895 43.6213 130.033 43.4924 131.285 42.0804Z" fill="#BDB39B"/>
<path d="M130.209 40.4493C129.864 41.2517 128.92 41.6306 128.134 41.274C127.343 40.9321 126.976 39.9802 127.336 39.1828C127.681 38.3804 128.626 38.0015 129.411 38.3581C130.202 38.7 130.56 39.6322 130.209 40.4493Z" fill="#434244"/>
<path d="M123.175 65.1526C126.469 63.5348 127.865 59.5352 126.293 56.2193C124.721 52.9034 120.776 51.5268 117.482 53.1446C114.188 54.7624 112.793 58.7619 114.365 62.0779C115.937 65.3938 119.881 66.7704 123.175 65.1526Z" fill="#AA7355"/>
<path d="M119.698 62.5165C121.532 62.8549 123.303 61.6236 123.653 59.7665C124.004 57.9093 122.801 56.1295 120.967 55.7912C119.133 55.4528 117.362 56.684 117.011 58.5412C116.661 60.3983 117.864 62.1781 119.698 62.5165Z" fill="#BDB39B"/>
<path d="M121.771 59.7848C121.426 60.5872 120.481 60.9661 119.696 60.6095C118.905 60.2676 118.538 59.3156 118.898 58.5183C119.243 57.7158 120.188 57.337 120.973 57.6936C121.759 58.0502 122.116 58.9824 121.771 59.7848Z" fill="#434244"/>
<path d="M159.711 27.5418L82.5743 0.622437L44.9292 108.494L122.066 135.413L159.711 27.5418Z" fill="#FFFFF5"/>
<path d="M98.7874 30.357C113.203 35.388 127.62 40.4189 142.036 45.4498C143.209 45.8594 143.855 44.0084 142.682 43.5989C128.265 38.5679 113.849 33.537 99.4334 28.506C98.2598 28.0965 97.6139 29.9475 98.7874 30.357Z" fill="#BBBCBF"/>
<path d="M81.3003 36.548C100.266 43.1666 119.246 49.7902 138.211 56.4088C139.385 56.8184 140.031 54.9674 138.857 54.5579C119.892 47.9393 100.912 41.3156 81.9463 34.697C80.7727 34.2874 80.1267 36.1384 81.3003 36.548Z" fill="#BBBCBF"/>
<path d="M77.4758 47.507C96.4412 54.1256 115.421 60.7492 134.387 67.3678C135.56 67.7774 136.206 65.9264 135.033 65.5168C116.067 58.8982 97.0872 52.2746 78.1218 45.656C76.9482 45.2464 76.3022 47.0974 77.4758 47.507Z" fill="#BBBCBF"/>
<path d="M73.6513 58.4659C92.6168 65.0846 111.597 71.7082 130.562 78.3268C131.736 78.7364 132.382 76.8854 131.208 76.4758C112.243 69.8572 93.2627 63.2336 74.2973 56.615C73.1237 56.2054 72.4778 58.0564 73.6513 58.4659Z" fill="#BBBCBF"/>
<path d="M69.8268 69.4249C88.7923 76.0435 107.772 82.6672 126.738 89.2858C127.911 89.6954 128.557 87.8444 127.384 87.4348C108.418 80.8162 89.4382 74.1926 70.4728 67.574C69.2992 67.1644 68.6533 69.0154 69.8268 69.4249Z" fill="#BBBCBF"/>
<path d="M61.4902 97.3651C69.6038 100.197 77.7028 103.023 85.8164 105.855C86.4828 106.087 86.8468 105.044 86.1804 104.812C78.0668 101.98 69.9677 99.1536 61.8542 96.3221C61.2022 96.0946 60.8382 97.1376 61.4902 97.3651Z" fill="#51927E"/>
<path d="M82.7678 99.5007C81.7857 99.5205 80.8609 99.3296 79.9644 98.9179L79.9621 98.5051C79.9581 98.1906 79.5295 97.9751 79.3391 98.2877C79.2887 98.3855 78.7382 99.2645 78.54 98.668C78.4346 98.3181 78.6992 97.9325 78.8358 97.6342C78.9972 97.3114 79.1314 96.8804 79.0115 96.5254C78.8634 96.1112 78.2518 95.5352 77.7699 95.8449C77.0176 96.324 77.4924 97.4784 76.6378 97.9712C76.132 98.2561 75.5723 97.7642 75.357 97.31C76.0531 96.7125 76.2635 95.8301 76.1389 94.9297C76.0999 94.6689 75.7522 94.5476 75.5594 94.7275C75.0048 95.292 74.5182 96.1274 74.5423 96.9433C74.1808 97.0478 73.7597 96.9503 73.5076 96.6481C74.3803 95.9639 74.9872 94.9233 75.0828 93.6712C75.1036 93.3324 74.732 93.1863 74.4761 93.3606C73.6982 93.9131 72.9484 94.5249 72.6782 95.4853C72.5902 95.7841 72.5848 96.0789 72.6332 96.3594C71.9261 96.7554 71.0778 96.9043 70.2212 96.7042C70.2221 96.6551 70.2281 96.5913 70.229 96.5421C70.2377 96.3309 70.2464 96.1197 70.2406 95.9035C70.3995 95.4481 70.5584 94.9927 70.7412 94.5621C70.8547 94.4698 70.963 94.3923 71.0909 94.3051C71.6573 93.893 72.1811 93.4167 72.6811 92.9155C74.6758 90.9255 76.0785 88.3498 76.7116 85.6044C76.7902 85.2858 76.5321 85.0474 76.214 85.1671C75.3042 85.4923 74.6932 86.2184 74.1351 86.9794C73.3977 87.9745 72.7225 89.0243 72.1053 90.0943C71.3678 91.3695 70.7214 92.7095 70.1815 94.0701C70.1371 94.1041 70.0979 94.1234 70.0536 94.1573C69.4872 94.5694 69.4994 95.2329 69.5075 95.8619C69.4049 96.1557 69.3169 96.4545 69.2143 96.7484C69.1477 96.9393 69.2464 97.1221 69.4297 97.2025L69.4442 97.2076C69.3737 97.8751 69.2547 98.5422 69.1067 99.1992C68.6789 101.077 67.8498 102.847 66.7616 104.429C66.2172 103.893 67.3505 100.366 67.4907 99.8712C67.8778 98.622 68.3852 97.4478 68.8976 96.2588C69.0195 96.2354 69.1134 96.1528 69.1357 95.9958L69.2282 95.4513C69.2779 95.1226 68.7853 94.9507 68.6196 95.2389C67.8462 96.617 67.284 98.1346 66.8097 99.6335C66.5525 100.417 66.3532 101.221 66.1736 102.015C66.0255 102.672 65.8383 103.348 65.8796 104.022C65.9335 104.799 66.7043 105.711 67.3324 104.842C68.1901 103.642 68.8561 102.292 69.3483 100.882C69.7431 99.7509 69.9878 98.5838 70.126 97.3961C71.0892 97.6169 72.0543 97.4593 72.8884 97.0253C72.9829 97.1736 73.1022 97.2976 73.241 97.412C73.6048 97.7202 74.1921 97.7604 74.6807 97.6178C74.7275 97.7166 74.7795 97.8006 74.8459 97.8897C75.4531 98.7113 76.7537 99.0828 77.4518 98.107C77.8009 97.6191 77.942 97.075 78.0302 96.4961C78.1522 96.4727 78.2433 96.5375 78.2944 96.6707C78.4263 96.898 78.1352 97.4062 78.0345 97.6017C77.8979 97.9001 77.7458 98.2425 77.8027 98.592C77.8722 99.0447 78.0791 99.43 78.5333 99.5721C78.8137 99.6534 79.0739 99.5135 79.3059 99.3143C79.3391 99.3589 79.392 99.3938 79.4499 99.414C80.4563 99.93 81.526 100.171 82.6539 100.153C83.144 100.192 83.2102 99.4903 82.7678 99.5007ZM72.6044 90.7134C73.1218 89.7899 73.6971 88.8865 74.2962 88.0079C74.7554 87.3442 75.2248 86.6511 75.8748 86.1858C75.067 88.9196 73.5127 91.2776 71.3843 93.1386C71.7685 92.3169 72.1622 91.5149 72.6044 90.7134ZM74.1819 94.5763C74.0024 95.0905 73.6977 95.5444 73.3121 95.9042C73.3696 95.4135 73.757 94.9554 74.1819 94.5763Z" fill="#3B464C"/>
<path d="M83.9375 101.458C83.5753 101.332 83.3754 101.905 83.7376 102.031C84.0998 102.157 84.2998 101.584 83.9375 101.458Z" fill="#3B464C"/>
</g>
<defs>
<filter id="filter0_d" x="0" y="14" width="109" height="133" filterUnits="userSpaceOnUse" color-interpolation-filters="sRGB">
<feFlood flood-opacity="0" result="BackgroundImageFix"/>
<feColorMatrix in="SourceAlpha" type="matrix" values="0 0 0 0 0 0 0 0 0 0 0 0 0 0 0 0 0 0 127 0"/>
<feOffset dy="4"/>
<feGaussianBlur stdDeviation="2"/>
<feColorMatrix type="matrix" values="0 0 0 0 0 0 0 0 0 0 0 0 0 0 0 0 0 0 0.25 0"/>
<feBlend mode="normal" in2="BackgroundImageFix" result="effect1_dropShadow"/>
<feBlend mode="normal" in="SourceGraphic" in2="effect1_dropShadow" result="shape"/>
</filter>
<filter id="filter1_d" x="37.5559" y="0.622437" width="144.135" height="158.732" filterUnits="userSpaceOnUse" color-interpolation-filters="sRGB">
<feFlood flood-opacity="0" result="BackgroundImageFix"/>
<feColorMatrix in="SourceAlpha" type="matrix" values="0 0 0 0 0 0 0 0 0 0 0 0 0 0 0 0 0 0 127 0"/>
<feOffset dy="4"/>
<feGaussianBlur stdDeviation="2"/>
<feColorMatrix type="matrix" values="0 0 0 0 0 0 0 0 0 0 0 0 0 0 0 0 0 0 0.25 0"/>
<feBlend mode="normal" in2="BackgroundImageFix" result="effect1_dropShadow"/>
<feBlend mode="normal" in="SourceGraphic" in2="effect1_dropShadow" result="shape"/>
</filter>
<clipPath id="clip0">
<rect width="101" height="125" fill="white" transform="translate(4 14)"/>
</clipPath>
<clipPath id="clip1">
<rect width="100.743" height="124.489" fill="white" transform="translate(82.5743 0.622437) rotate(19.2381)"/>
</clipPath>
</defs>
</svg>
