<?xml version="1.0" encoding="utf-8"?>
<!-- Generator: Adobe Illustrator 22.0.1, SVG Export Plug-In . SVG Version: 6.00 Build 0)  -->
<svg version="1.1" id="Layer_1" xmlns="http://www.w3.org/2000/svg" xmlns:xlink="http://www.w3.org/1999/xlink" x="0px" y="0px"
	 viewBox="0 0 38.6 33.7" style="enable-background:new 0 0 38.6 33.7;" xml:space="preserve">
<style type="text/css">
	.st0{fill:#FFFFFF;}
</style>
<g>
	<g>
		<g>
			<path class="st0" d="M38.6,12.5c-2,0-3-0.5-4-1c-1-0.5-1.9-1-3.7-1s-2.8,0.5-3.7,1c-1,0.5-2,1-4,1c-2,0-3-0.5-4-1
				c-1-0.5-1.9-1-3.7-1c-1.9,0-2.8,0.5-3.7,1c-1,0.5-2,1-4,1s-3-0.5-4-1c-1-0.5-1.9-1-3.7-1V10c2,0,3,0.5,4,1c1,0.5,1.9,1,3.7,1
				c1.9,0,2.8-0.5,3.7-1c1-0.5,2-1,4-1c2,0,3,0.5,4,1c1,0.5,1.9,1,3.7,1c1.9,0,2.8-0.5,3.7-1c1-0.5,2-1,4-1s3,0.5,4,1
				c1,0.5,1.9,1,3.7,1V12.5z"/>
		</g>
		<g>
			<path class="st0" d="M38.6,14.9c-2,0-3-0.5-4-1c-1-0.5-1.9-1-3.7-1s-2.8,0.5-3.7,1c-1,0.5-2,1-4,1c-2,0-3-0.5-4-1
				c-1-0.5-1.9-1-3.7-1c-1.9,0-2.8,0.5-3.7,1c-1,0.5-2,1-4,1s-3-0.5-4-1c-1-0.5-1.9-1-3.7-1v-0.5c2,0,3,0.5,4,1c1,0.5,1.9,1,3.7,1
				c1.9,0,2.8-0.5,3.7-1c1-0.5,2-1,4-1c2,0,3,0.5,4,1c1,0.5,1.9,1,3.7,1c1.9,0,2.8-0.5,3.7-1c1-0.5,2-1,4-1s3,0.5,4,1
				c1,0.5,1.9,1,3.7,1V14.9z"/>
		</g>
		<g>
			<path class="st0" d="M38.6,17.3c-2,0-3-0.5-4-1c-1-0.5-1.9-1-3.7-1s-2.8,0.5-3.7,1c-1,0.5-2,1-4,1c-2,0-3-0.5-4-1
				c-1-0.5-1.9-1-3.7-1c-1.9,0-2.8,0.5-3.7,1c-1,0.5-2,1-4,1c-2,0-3-0.5-4-1c-1-0.5-1.9-1-3.7-1v-0.5c2,0,3,0.5,4,1
				c1,0.5,1.9,1,3.7,1c1.9,0,2.8-0.5,3.7-1c1-0.5,2-1,4-1c2,0,3,0.5,4,1c1,0.5,1.9,1,3.7,1c1.9,0,2.8-0.5,3.7-1c1-0.5,2-1,4-1
				s3,0.5,4,1c1,0.5,1.9,1,3.7,1V17.3z"/>
		</g>
		<g>
			<path class="st0" d="M38.6,19.7c-2,0-3-0.5-4-1c-1-0.5-1.9-1-3.7-1s-2.8,0.5-3.7,1c-1,0.5-2,1-4,1c-2,0-3-0.5-4-1
				c-1-0.5-1.9-1-3.7-1c-1.9,0-2.8,0.5-3.7,1c-1,0.5-2,1-4,1s-3-0.5-4-1c-1-0.5-1.9-1-3.7-1v-0.5c2,0,3,0.5,4,1c1,0.5,1.9,1,3.7,1
				c1.9,0,2.8-0.5,3.7-1c1-0.5,2-1,4-1c2,0,3,0.5,4,1c1,0.5,1.9,1,3.7,1c1.9,0,2.8-0.5,3.7-1c1-0.5,2-1,4-1s3,0.5,4,1
				c1,0.5,1.9,1,3.7,1V19.7z"/>
		</g>
		<g>
			<path class="st0" d="M38.6,22.1c-2,0-3-0.5-4-1c-1-0.5-1.9-1-3.7-1s-2.8,0.5-3.7,1c-1,0.5-2,1-4,1c-2,0-3-0.5-4-1
				c-1-0.5-1.9-1-3.7-1c-1.9,0-2.8,0.5-3.7,1c-1,0.5-2,1-4,1c-2,0-3-0.5-4-1c-1-0.5-1.9-1-3.7-1v-0.5c2,0,3,0.5,4,1
				c1,0.5,1.9,1,3.7,1c1.9,0,2.8-0.5,3.7-1c1-0.5,2-1,4-1c2,0,3,0.5,4,1c1,0.5,1.9,1,3.7,1c1.9,0,2.8-0.5,3.7-1c1-0.5,2-1,4-1
				s3,0.5,4,1c1,0.5,1.9,1,3.7,1V22.1z"/>
		</g>
		<g>
			<path class="st0" d="M38.6,24.8c-2,0-3-0.5-4-1c-1-0.5-1.9-1-3.7-1s-2.8,0.5-3.7,1c-1,0.5-2,1-4,1c-2,0-3-0.5-4-1
				c-1-0.5-1.9-1-3.7-1c-1.9,0-2.8,0.5-3.7,1c-1,0.5-2,1-4,1s-3-0.5-4-1c-1-0.5-1.9-1-3.7-1v-0.5c2,0,3,0.5,4,1c1,0.5,1.9,1,3.7,1
				c1.9,0,2.8-0.5,3.7-1c1-0.5,2-1,4-1c2,0,3,0.5,4,1c1,0.5,1.9,1,3.7,1c1.9,0,2.8-0.5,3.7-1c1-0.5,2-1,4-1s3,0.5,4,1
				c1,0.5,1.9,1,3.7,1V24.8z"/>
		</g>
	</g>
	<g>
		<path class="st0" d="M19.7,33.7c-9.3,0-16.9-7.6-16.9-16.9S10.4,0,19.7,0s16.9,7.6,16.9,16.9S29,33.7,19.7,33.7z M19.7,3.2
			c-7.5,0-13.6,6.1-13.6,13.6c0,7.5,6.1,13.6,13.6,13.6c7.5,0,13.6-6.1,13.6-13.6C33.4,9.3,27.3,3.2,19.7,3.2z"/>
		<g>
			<path class="st0" d="M15,12.7c1.2-1.4,3-2.2,5-2.1c1.8,0.1,3.3,0.8,4.4,2l3.8-1.7c-1.8-2.5-4.7-4.3-8.1-4.4
				c-3.7-0.1-7.1,1.7-9,4.6L15,12.7z"/>
			<path class="st0" d="M26.1,16.4c0,0.3,0,0.6,0,0.8c-0.1,2.7-1.9,5-4.3,5.8l0,4.2c4.6-0.9,8.2-4.9,8.4-9.8c0-0.9-0.1-1.8-0.3-2.7
				L26.1,16.4z"/>
			<path class="st0" d="M17.7,23c-2.6-0.9-4.4-3.4-4.3-6.3c0-0.1,0-0.2,0-0.2l-3.9-1.6c-0.1,0.6-0.2,1.1-0.2,1.7
				c-0.2,5.2,3.4,9.6,8.4,10.6L17.7,23z"/>
		</g>
	</g>
</g>
</svg>
