<?xml version="1.0" encoding="utf-8"?>
<!-- Generator: Adobe Illustrator 22.0.1, SVG Export Plug-In . SVG Version: 6.00 Build 0)  -->
<svg version="1.1" id="Layer_1" xmlns="http://www.w3.org/2000/svg" xmlns:xlink="http://www.w3.org/1999/xlink" x="0px" y="0px"
	 viewBox="0 0 454.9 242.3" style="enable-background:new 0 0 454.9 242.3;" xml:space="preserve">
<style type="text/css">
	.st0{fill:#E9F6FC;}
	.st1{fill:none;stroke:#D3E7F6;stroke-miterlimit:10;}
	.st2{fill:none;stroke:#D3E7F6;stroke-miterlimit:10;stroke-dasharray:4.0148,4.0148;}
	.st3{fill:#F1F9FD;}
	.st4{fill:#B7DDF3;}
	.st5{fill:none;stroke:#D3E7F6;stroke-linecap:round;stroke-linejoin:round;stroke-miterlimit:10;}
	.st6{fill:#26397B;}
	.st7{fill:#F6B089;}
	.st8{fill:none;stroke:#0161A6;stroke-width:0.5;stroke-miterlimit:10;}
	.st9{fill:#DAEFFA;}
	.st10{fill:none;stroke:#98BFE2;stroke-width:0.5;stroke-miterlimit:10;}
	.st11{fill:none;stroke:#B8E2F6;stroke-width:5;stroke-linecap:round;stroke-linejoin:round;stroke-miterlimit:10;}
	.st12{fill:#F7AD31;}
	.st13{fill:#EF8419;}
	.st14{opacity:0.5;fill:#F7AD31;}
	.st15{fill:#FDC844;}
	.st16{fill:#0161A6;}
	.st17{fill:#EF9467;}
	.st18{fill:#E2E8ED;}
	.st19{fill:#BBE3F7;}
	.st20{fill:#2F58A1;}
	.st21{fill:none;stroke:#74ADDA;stroke-width:0.5;stroke-miterlimit:10;}
	.st22{fill:#98BFE2;}
	.st23{font-family:'OpenSans-Bold';}
	.st24{font-size:16.8144px;}
</style>
<g>
	<g>
		<g>
			<path class="st0" d="M427.8,221.4c-2.7-5.2-13.7-9.3-18.6-10.2c-26.2-5-53.7-4.3-80.2-4.2c-28.9,0.1-56.5,4.7-85.2,6.9
				c-14.9,1.1-30.7-0.9-45.6-1.4c-24.6-0.9-49.2-1.9-73.8-3c-21.2-1-43.2,1.2-62,12.9c-2.1,1.3-4.3,2.9-5.2,5.3
				c-6.1,15,69.7,13.1,79.6,13.4c49.8,1.3,99.6,2,149.4,0.6c37-1,75.6-0.9,112.3-6.2c8.1-1.2,19.2-1.6,26.2-6.3
				C428.5,226.4,429,223.8,427.8,221.4z"/>
		</g>
		<g>
			<g>
				<g>
					<path class="st1" d="M395.5,16.8c0.6,0,1.3,0,2,0"/>
					<path class="st2" d="M401.5,17.1c12.9,1.3,28.7,6.8,26.8,17.9c-2.9,17.8-82.1,11.2-101,11.4c-38,0.4-76.4,0.5-113.7,8.8
						c-9.1,2-22,6.5-21.1,18c0.3,4,2.7,7.7,5.8,10.4c10.9,9.8,26,10.8,40.1,12.5c21.3,2.6,122.6-0.9,155.7,10
						c6.5,2.1,14.7,4.9,14.9,14.2c0.7,23.7-58.1,22.5-75.8,23c-47.1,1.2-94.2,0.7-141.3-0.2c-38.1-0.8-76.2-1.4-114.2-3.9
						c-14.2-0.9-37.3-1.2-48.1-11.8c-6-5.9-6.8-16.8,2.7-22.3c6.7-3.9,26.5-2.2,34.1-2.8c23-2,16-15.9-2.6-17.7"/>
					<path class="st1" d="M61.9,84.6c-0.7,0-1.3,0-2,0"/>
				</g>
			</g>
			<g>
				<path class="st3" d="M396.9,34.1l-6.1-32.1c-0.4-1.9-2.7-2.7-4.1-1.4l-24.7,21.3c-1.5,1.3-1,3.7,0.8,4.3L393.6,37
					C395.4,37.6,397.2,36,396.9,34.1z"/>
				<g>
					<path class="st4" d="M392.2,33.6c-0.2,0-0.3,0-0.5-0.1l-25.3-8.9c-0.5-0.2-0.9-0.6-1-1.2c-0.1-0.6,0.1-1.1,0.5-1.5l20.3-17.5
						c0.4-0.4,1-0.5,1.5-0.3c0.5,0.2,0.9,0.6,1,1.2l5,26.4c0.1,0.6-0.1,1.1-0.5,1.5C392.9,33.5,392.6,33.6,392.2,33.6z M367.7,23
						l23.9,8.4l-4.7-24.9L367.7,23z"/>
				</g>
				<path class="st4" d="M381.2,22.9L381.2,22.9c-0.5-0.2-0.7-0.7-0.6-1.2l2.5-8.8c0.2-0.8,1.1-1.3,1.9-1l0,0c0.8,0.3,1.2,1.2,0.9,2
					l-3.5,8.5C382.2,22.8,381.7,23,381.2,22.9z"/>
				<path class="st4" d="M381.4,25.3c-0.2,0.5-0.7,0.8-1.2,0.6c-0.5-0.2-0.8-0.7-0.6-1.2c0.2-0.5,0.7-0.8,1.2-0.6
					C381.3,24.2,381.6,24.8,381.4,25.3z"/>
			</g>
			<g>
				<path class="st3" d="M58,73.7L38,63.8c-1.2-0.6-2.6,0.3-2.5,1.7l1.4,22.2c0.1,1.3,1.6,2.1,2.7,1.3l18.6-12.3
					C59.3,76,59.2,74.3,58,73.7z"/>
				<g>
					<path class="st4" d="M55.8,76.1c-0.1,0.1-0.2,0.2-0.3,0.2L40.3,86.5c-0.3,0.2-0.7,0.2-1.1,0.1c-0.3-0.2-0.6-0.5-0.6-0.9
						l-1.1-18.3c0-0.4,0.2-0.7,0.5-1c0.3-0.2,0.7-0.2,1.1-0.1l16.4,8.2c0.3,0.2,0.6,0.5,0.6,0.9C56,75.6,55.9,75.9,55.8,76.1z
						 M39.9,85l14.4-9.6l-15.5-7.7L39.9,85z"/>
				</g>
				<path class="st4" d="M45.4,77.6L45.4,77.6c-0.3,0.2-0.7,0.1-0.9-0.2l-3.8-5C40.4,72,40.5,71.3,41,71l0,0
					c0.5-0.3,1.1-0.2,1.4,0.3l3.1,5.4C45.8,77.1,45.7,77.4,45.4,77.6z"/>
				<path class="st4" d="M46.8,78.5c0.2,0.3,0.1,0.7-0.2,0.9c-0.3,0.2-0.7,0.1-0.9-0.2c-0.2-0.3-0.1-0.7,0.2-0.9
					C46.2,78.1,46.6,78.2,46.8,78.5z"/>
			</g>
			<g>
				<circle class="st1" cx="71.8" cy="116.9" r="1.7"/>
				<circle class="st1" cx="318.2" cy="86.2" r="1.7"/>
				<circle class="st1" cx="187.5" cy="39.7" r="1.7"/>
				<circle class="st1" cx="185.5" cy="165.9" r="1.7"/>
				<g>
					<line class="st5" x1="224.2" y1="68.2" x2="224.2" y2="71.9"/>
					<line class="st5" x1="226" y1="70" x2="222.3" y2="70"/>
				</g>
				<g>
					<line class="st5" x1="291.6" y1="20.2" x2="291.6" y2="23.9"/>
					<line class="st5" x1="293.4" y1="22.1" x2="289.7" y2="22.1"/>
				</g>
				<g>
					<line class="st5" x1="395.9" y1="121.5" x2="395.9" y2="125.2"/>
					<line class="st5" x1="397.7" y1="123.4" x2="394" y2="123.4"/>
				</g>
			</g>
		</g>
		<g>
			<g>
				<g>
					<path class="st6" d="M257.9,228.9c0,0-7,3-7,4.5c0,0.9,9.6-0.4,10.2-0.9c0.9-0.9-0.4-3.4-0.4-3.4L257.9,228.9z"/>
					<path class="st7" d="M257.4,224.7l0.4,4.3c0,0,0.2,0.7,1.2,0.8c1,0.1,1.6-0.8,1.6-0.8l-0.3-5.4"/>
					<g>
						<path class="st6" d="M269.6,126.1c2.5,10.2,1.6,15.4-2.1,23.2c-2.3,26-3.8,51.9-6.9,77.2l-3.2,0.2
							c-7.3-24.7-14-61.5-13.2-95.3"/>
					</g>
					<g>
						<path class="st8" d="M268.1,129.6c0.9,2.4,1.2,5.1,1.1,7.6c-0.1,3.9-1.7,7.4-2.7,11.1c-1.4,4.9-1.5,9.8-1.8,14.9
							c-0.6,7.9-1.2,15.8-1.8,23.7c-1,12.9-2,25.7-3,38.6c0,0.4-0.1,0.8-0.1,1.1"/>
					</g>
				</g>
				<g>
					<path class="st6" d="M285.8,229.9c0,0-7,3-7,4.5c0,0.9,9.6-0.4,10.2-0.9c0.9-0.9-0.4-3.4-0.4-3.4L285.8,229.9z"/>
					<path class="st7" d="M285.3,225.7l0.4,4.3c0,0,0.2,0.7,1.2,0.8c1,0.1,1.6-0.8,1.6-0.8l-0.3-5.4"/>
					<g>
						<path class="st6" d="M292.9,125.2c3.2,10.1,2.6,15.3-0.6,23.3c-0.5,26.1-2.3,53.3-3.7,78.8h-3.3
							c-8.9-24.1-18.5-61.4-19.8-95.1"/>
					</g>
					<g>
						<path class="st8" d="M291.3,129.4c0,0,3.7,8.7-2.6,21c-0.7,11.6-1.1,76.9-1.1,76.9"/>
						<path class="st8" d="M282.1,132.2c0.6,1,1.6,1.7,2.7,2.1c1.1,0.4,2.2,0.6,3.4,0.8c1.4,0.2,2.8,0.3,4.2,0.2"/>
						<path class="st8" d="M282.5,133.8c1.2,1.1,2.7,1.7,4.3,2.1c1.6,0.4,3.2,0.4,4.8,0.5"/>
					</g>
				</g>
			</g>
			<g>
				<g>
					<path class="st7" d="M254.7,76.7c-11.1,19.3-23.1,36.9-30.2,58l-2.1-1.1c0.5-19.6,6.9-48.2,15.3-66"/>
				</g>
				<g>
					<path class="st9" d="M249.3,56.4c0,0-3.4,1-7.5,3.7c-3.8,2.5-6.7,6.3-8.6,10.4c-2,4.1-3,8.6-3.7,13.1c0,0,4.7,2.3,10,3
						c5.3,0.7,11,0,11,0"/>
				</g>
			</g>
			<g>
				<g>
					<path class="st9" d="M241,67.9c-1.2,20.9-0.3,42.4,0.3,62.8c0,0,7.3,1.9,25,1.9c17.7,0,29.2-5.4,29.2-5.4
						c-3.4-20.9-6.1-46.6-14.5-63.8c0,0-9.5-10.2-18.8-10.6c-1.9-0.1-3.7,0.6-5.5,1.4c-1.3,0.6-7.4,2.1-7.4,2.1L241,67.9z"/>
				</g>
				<path class="st10" d="M240.9,69.7c-0.5,4-0.5,16.4-0.5,16.4"/>
			</g>
			<g>
				<path class="st11" d="M258.5,137.3c29.6-3.3,42,34.3,48.8,48.8c15.9,34.4,76.1,30.6,103.5,30.6c35.9,0,51.7,12.1,34.9,18.4"/>
				<path class="st12" d="M268.7,139c0,15.2-11.5,24.4-21.4,24.4h-16.2v-48.9h16.2C257.2,114.5,268.7,123.7,268.7,139z"/>
				<path class="st13" d="M260.4,139c0,14.9-8.8,27-19.7,27h-17.8V112h17.8C251.6,112,260.4,124.1,260.4,139z"/>
				<path class="st14" d="M264.4,124.2c-3.9,5.3-7.6,10.6-11.3,16c0.5-0.1,1-0.4,1.4-0.7c0,0.4-0.6,1.1-0.1,1.4
					c0.6,0.3,1.2-0.4,1.8-0.2c0.6-0.1,1.1-0.8,1.5-1.2c-0.2,0.4-0.2,0.7-0.2,0.9c3.9-1.5,7.5-5.2,10.5-8.2
					C267.2,129.2,265.9,126.5,264.4,124.2z"/>
				<ellipse class="st15" cx="224.2" cy="139" rx="19.7" ry="27"/>
				<g>
					<g>
						<path class="st13" d="M225.8,148.5c0,2.2-1.5,4-3.4,4s-3.4-1.8-3.4-4c0-2.2,1.5-4,3.4-4S225.8,146.3,225.8,148.5z"/>
					</g>
					<g>
						<path class="st13" d="M225.8,129.4c0,2.2-1.5,4-3.4,4s-3.4-1.8-3.4-4c0-2.2,1.5-4,3.4-4S225.8,127.2,225.8,129.4z"/>
					</g>
				</g>
			</g>
			<g>
				<g>
					<path class="st7" d="M286.4,83.3c0,0,1.2,12.7-4.4,23.3c-4.9,9.1-14.5,20.8-22.4,27.2l-1.9-0.5c2.7-10.4,11.3-29,11.8-35.9
						c0.5-6.9,0.4-15,0.5-18.9"/>
				</g>
				<path class="st9" d="M262.2,52.8c0,0,10.5,0.7,16.6,5.9c8.7,7.3,10,21.7,10,25c-2.6,2.8-8.4,3-12.5,3s-7.2-2-7.2-2l-0.9-15.8"/>
				<g>
					<path class="st7" d="M258.5,131.9c-1.2,0.1-2.3,0.7-3.4,1.5c-0.9,0.7-2,1.9-1.9,2.5c0.1,0.6,1.6-0.5,1.8-0.3
						c0.2,0.2-2.6,4.4-2.1,4.7c0.5,0.3,2.9-3.5,2.9-3.5s-2.3,4-1.4,4.1c0.7,0.1,2.8-3.7,2.8-3.7s-1.7,3.4-1.1,3.5
						c0.6,0.1,2.2-3.3,2.2-3.3s-1.3,2.9-0.8,3c0.2,0,1.5-1.4,2.1-3.2c0.5-1.7,1.1-3.2,0.7-4.6"/>
				</g>
				<line class="st10" x1="269.4" y1="70.5" x2="269.4" y2="84.9"/>
			</g>
			<g>
				<g>
					<path class="st6" d="M240.5,39.5c-0.1,0.6-0.1,1.3-0.1,1.9c0,1.4,0.2,2.8,1,3.9c0.5,0.8,1.3,1.3,2.2,1.6
						c0.6,0.2,1.5,0.1,1.7-0.5c0.1-0.2,0.1-0.5,0.1-0.7c0-2.3-0.5-4.6-1.3-6.8"/>
				</g>
				<g>
					<path class="st7" d="M256.3,40.8c-0.9-3.5-3.7-8.4-8.3-7.4c-2.9,0.6-5.5,2.6-6.4,5.3c-1,3.3,0.6,7.1,2.6,9.8
						c0.7,1,1.6,1.9,2.7,2.5c2.7,1.4,6.3,0.2,8.1-2C256.8,46.7,257,43.6,256.3,40.8z"/>
				</g>
				<path class="st7" d="M249.8,50l1.5,5.5l-2,1c0,0,1.6,2.1,4.6,1.6c6.3-0.9,8.3-5.3,8.3-5.3l-3.5-0.4l-3.9-6.7"/>
				<g>
					<path class="st6" d="M259.4,37c-0.4-2.4-2.2-4.5-4.2-5.7c-3.7-2.3-9-2.4-12.3,0.7c-1.9,1.8-5.3,8-1.2,9.3
						c1.3,0.4,2.6-0.4,3.7-1.1c1.1-0.7,2.2-1.5,3.4-2.2c0.4-0.3,0.8-0.5,1.3-0.6c0.8,0,1.4,0.7,1.7,1.4s0.3,1.6,0.5,2.3
						c0.1,0.5,0.4,1.1,0.8,1.4c0.5,0.3,1.2,0.2,1.5-0.3c0.2-0.4,0-0.8,0-1.2c0-0.4,0.2-0.9,0.6-0.8c0.1,0,0.3,0.1,0.4,0.2
						c1,0.8,0.7,2.3,1,3.5c0,0.2-0.3,2.6-0.2,2.7C259.4,45.8,259.7,38.7,259.4,37z"/>
				</g>
				<g>
					<path class="st7" d="M254.7,40.4c-0.1-0.4,0.4-0.9,0.8-0.9c0.4,0,0.9,0.2,1.2,0.5c0.6,0.5,1,1.2,1,2c0,0.6-0.2,1.2-0.6,1.7
						c-0.2,0.3-0.5,0.7-0.9,0.8c-0.5,0.2-1.1-0.1-1.4-0.4"/>
				</g>
			</g>
		</g>
		<g>
			<g>
				<g>
					<path class="st6" d="M143.4,228.7c0,0,6.7,1.1,6.9,2.6c0.1,0.8-9.5,1.9-10.1,1.4c-1-0.8,0.2-3.8,0.2-3.8L143.4,228.7z"/>
					<path class="st7" d="M142.8,224.6l0.6,4.3c0,0-0.1,0.7-1.1,0.9c-1,0.2-1.7-0.6-1.7-0.6l-0.8-5.3"/>
					<g>
						<path class="st6" d="M117.6,127.4c-1.2,10.5-1.3,15.5,3.4,22.7c2.2,10.1,5.6,20.5,8.2,30.9c-1.1,12.4,6.7,32.2,10.9,46.3
							l3-0.5c4.1-25.4,5.6-64.4,1.9-98.5"/>
					</g>
					<path class="st8" d="M119.6,141.6c0,0,11.6,36.8,11.6,38.8s0.3,8.9,0.8,13.3c0.9,8.2,8.3,32.2,8.3,32.2"/>
					<polygon class="st16" points="140,227.9 139.5,226.1 143.4,225.9 143.5,227.6 					"/>
				</g>
				<g>
					<path class="st6" d="M90.9,228.9c0,0,5.3,3.8,4.8,5.2c-0.3,0.8-8.9-2.4-9.2-3.1c-0.5-1.1,1.8-3.1,1.8-3.1L90.9,228.9z"/>
					<path class="st7" d="M92.2,225.2l-1.3,3.9c0,0-0.4,0.6-1.3,0.3c-0.9-0.2-1.2-1.2-1.2-1.2l1.6-4.9"/>
					<g>
						<path class="st6" d="M95,125.2c-3.2,10.1-2.6,15.3,0.6,23.3c0.2,9.5,0.3,19.2,0.4,28.8c-6.8,17-7.9,32.2-7,48.4l3.3,1.2
							c0,0,19.5-34,23.1-47.4c4.1-15.4,6.4-31.9,7.1-47.3"/>
					</g>
					<path class="st8" d="M95.8,127.4c0,0-3.5,10.4,1.1,20.4c0,2.8,1.6,26,1,29.6c-0.3,1.7-3.5,9.9-5.6,17.9
						c-2.4,8.8-2.9,29.7-2.9,29.7"/>
					<polygon class="st16" points="88.3,225.7 88.9,223.5 93.1,225.5 92.2,227.4 					"/>
				</g>
			</g>
			<g>
				<path class="st17" d="M149.5,47.6l-2.6-2.2c0,0,0-3.9,0-4.6c0-0.7-1-5-1.9-5c-0.9,0-1.1-1.1-1.5-0.6c-0.4,0.4,0.4,5.3,0,5.7
					s-0.8-2.3-1.2-2C142,39.1,142,41,142,42c0,1,0.8,2.9,1.6,3.7c0.8,0.8,4.3,4.6,4.3,4.6L149.5,47.6z"/>
				<g>
					<path class="st9" d="M148.2,46.1l-2.2,2.5c0,0,8.7,11.5,11.4,15.3c-2.5-0.9-6.1-3.1-8.2-4.4c-4.1-2.7-8.2-4.1-11-4.1
						c-6,0-2.9,19.8,4.1,22.7c13.2,2,28,0.7,30.3-3.9C176,67.3,156.6,51.1,148.2,46.1z"/>
				</g>
				<path class="st10" d="M157.4,63.9c0,0,1.7,4.6,4.6,6.1"/>
			</g>
			<g>
				<g>
					<path class="st9" d="M107.9,60.6c-15.8,17.7-15.5,48.1-15.5,68.8c0,0,11.6,7.9,29.2,7.9c17.7,0,25-4.4,25-4.4
						c0.5-20.9-3.2-30,0.3-64.6c0,0-5.6-12.9-8.6-12.9c-3,0-14.8-1.2-14.8-1.2L107.9,60.6z"/>
				</g>
				<path class="st10" d="M146,78.5c0,0,0.4-6.1,1.8-7.5"/>
			</g>
			<g>
				<path class="st7" d="M128.7,41c0.6-3.6,3.1-8.7,7.8-8.1c2.9,0.4,5.2,2.4,6.8,4.8c1.4,2,0.9,4-1.1,9.1c-0.6,1.1-2,2.9-3.1,3.6
					c-2.5,1.6-6.2,0.8-8.2-1.3S128.2,43.8,128.7,41z"/>
			</g>
			<g>
				<path class="st6" d="M129.3,40.5c0.7-0.1,0-0.5,0.3,0.1c0.2,0.4,0.2,0.5,0.6,0.6c0.4,0.1,0.4,0.5,0.7,0.7
					c0.5,0.4,0.9-0.1,1.1-0.5c0.4-0.8,0.4-1.7,0.3-2.5c-0.1-0.7-0.3-1.7,0.4-2.2c0.5-0.4,1.7,0.2,2.2,0.3c0.8,0.2,1.7,0.5,2.5,0.8
					c2,0.6,4.1,1.2,6.3,0.9c1.8-0.2,3.8-1.2,4.6-2.9c1.1-2.1-1.1-4.7-3.2-4.7c-0.6,0-1.1,0.2-1.7,0.3c-0.2,0-0.4,0.1-0.6,0
					c-0.5-0.1-0.7-0.7-0.9-1.1c-0.8-1.2-2.2-1.6-3.6-1.5c-1.6,0.2-3,0.9-4.5,1.4c-0.8,0.2-1.5,0-2.3,0c-0.8,0-1.7,0.6-2.1,1.3
					c-0.7-0.7-2.1,1-2.5,1.4c-1.6,1.9-2.1,4.7-2.1,7.2c0,2.1,0.3,5.3,2.7,6.1c1,0.4,1.6,0.6,1.7-0.4c-0.4-0.9-0.5-2.8-0.6-3.6
					s0.1-1.7,0.9-2"/>
			</g>
			<path class="st7" d="M136.9,49.5l-0.5,5.4l1.8,0.5c0,0-0.9,2.4-4,2.8c-6.3,0.8-10.7-4-10.7-4l2.1-0.4l3.2-10"/>
			<g>
				<path class="st7" d="M130.3,40.5c0-0.4-0.4-0.8-0.9-0.8c-0.4,0-0.9,0.3-1.2,0.6c-1.8,1.8,0.5,6,2.2,3.8"/>
			</g>
			<g>
				<path class="st6" d="M142.2,46.7c-0.3,0.7-1.4,0.9-2,1c-3,0.3-5.4-1.6-8.2-1.9c-0.6-0.1-1.2-0.1-1.6,0.3c-0.4,0.4-0.4,1-0.4,1.5
					c0,0.7,0,1.3,0,2c0.1,0.6,0.2,1.1,0.5,1.6c1.3,2.1,5.5,2.5,7.7,2.4c0.9-0.1,1.8-0.2,2.5-0.7c1-0.7,1.2-2,1.5-3.1
					C142.5,48.2,142.2,46.7,142.2,46.7z"/>
			</g>
			<g>
				<path class="st7" d="M140.1,49c-0.1-0.1-0.2-0.1-0.3-0.1c-1.4,0-2.1-0.3-3.2-0.4c-0.2,0-0.4,0-0.5,0c-0.4,0.1-0.6,0.5-0.7,0.9
					c-0.1,0.4,0.1,0.7,0.5,0.9c0.6,0.3,1.4,0.4,2.1,0.5c0.6,0,1.4,0.1,1.9-0.3C140.1,50.1,140.5,49.3,140.1,49z"/>
			</g>
			<g>
				<path class="st11" d="M127.1,127.1c-34.4-1.8-54.4,16-68.7,48.3c-18.5,42-44.3,45.3-55.9,45.1"/>
				<path class="st12" d="M113.9,129.9c1.3,15.2,13.5,23.4,23.3,22.6l16.1-1.3l-4.1-48.7l-16.1,1.3
					C123.3,104.6,112.6,114.7,113.9,129.9z"/>
				<path class="st13" d="M122.2,129.2c1.2,14.8,11,26.1,21.9,25.2l17.8-1.5l-4.5-53.7l-17.8,1.5
					C128.7,101.6,120.9,114.4,122.2,129.2z"/>
				
					<ellipse transform="matrix(0.9965 -8.312733e-02 8.312733e-02 0.9965 -9.9409 13.596)" class="st15" cx="158.3" cy="126.2" rx="19.7" ry="27"/>
				<g>
					<g>
						<path class="st12" d="M157.5,135.8c0.2,2.2,1.8,3.9,3.7,3.7c1.9-0.2,3.2-2.1,3-4.3s-1.8-3.9-3.7-3.7
							C158.6,131.7,157.3,133.6,157.5,135.8z"/>
					</g>
					<g>
						<path class="st12" d="M155.9,116.8c0.2,2.2,1.8,3.9,3.7,3.7c1.9-0.2,3.2-2.1,3-4.3c-0.2-2.2-1.8-3.9-3.7-3.7
							C157,112.7,155.7,114.6,155.9,116.8z"/>
					</g>
				</g>
				<g>
					<path class="st18" d="M159.8,119.3c2-0.2,25.1-2.1,25.1-2.1c1.5-0.1,2.7-1.5,2.5-3l0,0c-0.1-1.5-1.5-2.7-3-2.6
						c0,0-23.2,1.9-25.1,2.1C157.4,113.8,157.8,119.5,159.8,119.3z"/>
					<path class="st18" d="M161.4,138.3c2-0.2,25.1-2.1,25.1-2.1c1.5-0.1,2.7-1.5,2.5-3l0,0c-0.1-1.5-1.5-2.7-3-2.6
						c0,0-23.2,1.9-25.1,2.1C159,132.9,159.4,138.5,161.4,138.3z"/>
				</g>
			</g>
			<g>
				<g>
					<path class="st7" d="M99.5,83.3c0,0-1.2,12.7,4.4,23.3c4.9,9.1,14.5,20.8,22.4,27.2l1.9-0.5c-2.7-10.4-11.3-29-11.8-35.9
						c-0.5-6.9-0.4-15-0.5-18.9"/>
				</g>
				<path class="st9" d="M123.5,54.2c0,0-11,0.6-17.4,5.4c-11,8.3-8.8,30.6-5.6,41.5s18.6,27.2,23.5,30.7c0.8,0,3.2-0.2,3.1-2.1
					c-2.7-8.5-10.6-30.8-10.6-30.8l1.2-30.1"/>
				<g>
					<path class="st7" d="M127.4,131.9c1.2,0.1,2.3,0.7,3.4,1.5c0.9,0.7,2,1.9,1.9,2.5c-0.1,0.6-1.6-0.5-1.8-0.3
						c-0.2,0.2,2.6,4.4,2.1,4.7c-0.5,0.3-2.9-3.5-2.9-3.5s2.3,4,1.4,4.1c-0.7,0.1-2.8-3.7-2.8-3.7s1.7,3.4,1.1,3.5
						c-0.6,0.1-2.2-3.3-2.2-3.3s1.3,2.9,0.8,3c-0.2,0-1.5-1.4-2.1-3.2c-0.5-1.7-1.1-3.2-0.7-4.6"/>
				</g>
				<path class="st10" d="M119.6,107.8c-1.8-5.1-3.1-8.9-3.1-8.9l2.3-25.3"/>
				<path class="st10" d="M97.9,79.8c-0.1,6.9,0.8,15.3,2.5,21.3c1.5,5.2,5.9,11.7,10.6,17.5"/>
			</g>
		</g>
		<g>
			<path class="st7" d="M334.1,42.6l1.8-1.2c0,0,0.8-3.9,1.3-4.6c0.5-0.7,1.4-2.3,2.4-3c0.4-0.3,2.4-1.4,2.9-0.9
				c0.2,0.2-0.6,2.5-1,2.9c-0.4,0.4-1.5,2.1-1.3,2.6c0.2,0.5,1.1-0.6,1.3-0.9c0.2-0.2,0.5-0.5,0.6-0.2c0.2,0.5-0.8,3.2-1.6,3.9
				c-0.8,0.8-2,1.5-2.9,1.5l-2.8,2.4"/>
			<g>
				<path class="st6" d="M355.4,29.9c2.9,1.7,4.8,5,5.5,8.3c0.1,0.6,0.2,1.2,0.6,1.7c0.3,0.4,0.8,0.5,1.2,0.7
					c2.4,1.1,4.3,3.3,5.2,5.9c0.4,1.1,0.1,2.6,0.5,3.5c0.5,1.1,2.4,1.4,3.5,1.7c3.1,1,5.4,4.1,5.4,7.4c0,3.2-2.2,6.4-5.2,7.5
					c0.8,1.2,0.9,2.7,0.6,4.1c-0.4,1.4-1.2,2.6-2.2,3.6c-3.9,4.4-9.9,6.7-15.7,6.5c-1.7-0.1-3.4-0.4-4.9-1c-1.8-0.7-3.3-1.9-4.8-3.1
					c-1.8-1.4-3.6-3-4.6-5.1c-1-2.1-0.9-4.8,0.7-6.5c-1.9,0.4-3.9-0.6-5-2.3c-1.1-1.6-1.3-3.7-0.8-5.6c0.4-1.9,1.4-3.6,2.6-5.2
					c0.8-1.1,1.8-2.2,1.9-3.6c0.3-2.3-1-4.3-1.3-6.5c-0.5-3.5-0.4-6.5,2.6-8.4c1-2.5,2.1-4.4,4.9-5.1
					C349.3,27.6,352.5,28.1,355.4,29.9z"/>
			</g>
			<path class="st19" d="M348.3,56.4c-10-2.6-21.4,1.5-23.9,1.5c3.5-3.5,9.9-11.2,12.1-13.9c0-1.8-1.1-2.4-1.1-2.4
				S307.9,55.8,310.7,65c2.9,9.6,29.7,4.9,31.8,7.7"/>
			<g>
				<path class="st7" d="M350.2,146.2c0,0.8-3.6,18.4-3.9,20.3c-0.8,5.5,2.1,11,1.9,19.5c-0.3,10.3-4.7,38.2-5.3,39.4
					c-0.6,1.2-3.2,0.1-3.2,0.1s-7.7-37.3-8.2-52.6c-0.4-12.6,1.5-39.8,1.5-39.8"/>
				<path class="st6" d="M343.2,225.8c0,0,0.4,0.9,0.4,1.4c-0.1,1.2-0.1,1.9-0.1,1.9l-0.5,0l-0.2-0.9c0,0-1.3,0.2-2.7,1.1
					c-0.7,0.4-4,0.4-4.5,0.1c-0.6-0.3-0.4-0.8-0.2-1.1c0.2-0.2,3.8-1.8,3.8-1.8"/>
				<path class="st7" d="M339.7,225.5c-0.3,0.7-3.1,2.2-2.9,2.5c0.3,0.2,1.9,0.2,3.7-0.4c1.7-0.6,2.6-1.2,2.7-1.6l-0.3-1.2"/>
			</g>
			<g>
				<path class="st7" d="M375,146.9c0,0.8-3,18.5-3.2,20.4c-0.6,5.5,2.5,10.9,2.4,19.4c0,10.4-3.6,38.3-4.1,39.5
					c-0.5,1.2-3.2,0.2-3.2,0.2s-8.9-37-9.8-52.3c-0.7-12.6,0.3-39.8,0.3-39.8"/>
				<path class="st6" d="M370.4,226.7c0,0,0.5,0.9,0.5,1.4c0,1.2,0,2,0,2l-0.5,0l-0.2-0.9c0,0-1.3,0.3-2.7,1.2
					c-0.6,0.5-4,0.5-4.5,0.3c-0.6-0.3-0.4-0.8-0.2-1.1c0.2-0.2,3.7-1.9,3.7-1.9"/>
				<path class="st7" d="M366.9,226.5c-0.3,0.7-3.1,2.3-2.8,2.5c0.3,0.2,1.9,0.2,3.7-0.5c1.6-0.6,2.6-1.3,2.6-1.7l-0.4-1.2"/>
			</g>
			<path class="st20" d="M366,101.8c0,0,7.9,5.2,10.9,17.6c4.1,16.8-1.9,49.7-1.9,49.7s-12.4,3.6-25.9,3.5
				c-13.5-0.1-21.5-4.7-21.5-5.5c0-0.8-2-25.7,0.7-42.6c3.1-19,10.9-24.1,10.9-24.1"/>
			<g>
				<g>
					<path class="st19" d="M355.3,56.1c1.2-0.5,4.4,0.7,10.4,2.9c2.6,2.8,3.8,9.1,4.3,14.6c-1.5,13.4-3.3,20.7-2.4,25.2
						c0.2,1.1,1.2,1.9,1,3.4c-0.3,3.1-5.4,3.6-15,4.6c-9.6,1.1-18.2-3.3-17.7-4.6c0.5-1.4,2.2-2.6,2.4-3.5c0.3-0.9,1-12.4,0-13.7
						c-1-1.4-3.7-5.3-3.7-9.1c0-5.4,3-7.8,4.9-10.7c3.2-4.9,5.7-8,8.8-8.8C353.3,55.2,355.3,56.1,355.3,56.1z"/>
				</g>
				<path class="st21" d="M339.1,62.9c0,0,0.3,2.3-0.8,4.2c-0.4,0.6-2.5,2.8-3,4.2"/>
			</g>
			<g>
				<path class="st7" d="M353,49.5c2.6-2.6,3-7.5,1.8-10.9c-1.3-3.8-6.7-6.6-10.4-4.2C337.2,39.1,344.5,57.9,353,49.5z"/>
			</g>
			<path class="st7" d="M348,49.1l0.1,8c0,0-0.3,1.8,2.8,1.9c4.3,0.2,4.3-2.9,4.3-2.9l-2.5-8.3"/>
			<g>
				<path class="st6" d="M351.2,30.9c-0.9-0.6-1.8-0.6-2.7-0.1c-0.6,0.3-1,0.9-1.5,1.1c-0.4,0.2-0.9,0.2-1.4,0.3
					c-2.1,0.6-4.1,2.2-4.9,4.2c-0.9,2-0.6,5.3,1.1,6.7c-0.1-1.5,0.4-3.8,1.2-5.1c0.4-0.7,1.1-1.4,1.9-1.3c0.9,0.1,1.4,1.1,2.1,1.7
					c1,1,2.4,1.2,3.7,1.4c1.5,0.2,2.6,0.5,3.4,1.9c0.3,0.6,0.5,1.3,0.7,2c0.2,0.8,0.4,1.6,0.5,2.5c0,0.5,0,1.1,0.2,1.6
					c0.3,1,1.3,1.6,2.3,1.9c0.8,0.3,2,0.5,2.5-0.4c0.4-0.7,0.7-1.7,0.9-2.5c0.5-2.7-0.4-5.5-1.9-7.8c-1.6-2.5-3.9-4.2-5.9-6.4
					C352.5,32,351.9,31.3,351.2,30.9z"/>
			</g>
			<g>
				<path class="st7" d="M353.3,43.3c0.2-0.6,0.6-1.2,1.2-1.3c2-0.3,1.7,2.7,0.9,3.8c-0.5,0.6-1.7,1.4-2.2-0.3"/>
			</g>
			<g>
				<path class="st7" d="M375,105.9l-1,2.1c0,0-3.6,0.9-4,1.5c-0.6,1-1.5,2.4-1.5,3.2c0,0.8,0.1,4.3,1.1,4.3c0.6,0,2.1-2.8,2.4-3.2
					c0.7-0.9,3.6-1.6,3.6-4.1l1.8-3.7"/>
				<path class="st19" d="M355.3,56c0,0,8.5-2.2,15.1,2c5.1,3.2,18.4,19.4,18.4,28.7c0,6.2-12.4,21.7-12.4,21.7l-2.1-1.5
					c0,0,1.2-12.2,4.8-18.8c-2.7-2.7-13-10.9-15.6-13.5"/>
				<path class="st21" d="M362.2,73.7c1.9,1.6,6.7,5.6,6.7,5.6"/>
			</g>
		</g>
		<g>
			<g>
				<path class="st0" d="M112.2,41.7l-10.2-8.3c0,0,4.6-17-1.5-23c-3.2-3.2-7.3-5.3-11.6-6.9C79.4,0,68.2-0.9,59.8,4.7
					c-6.2,4.1-10,11.2-11.7,18.4c-1.5,6.4-1.4,13.6,2.6,18.8c1.8,2.3,4.2,4.1,6.8,5.5c8.1,4.2,29.5,5.8,38.8-0.4
					c2.6-1.7,2.3-4.1,3.4-7.7L112.2,41.7z"/>
			</g>
			<text transform="matrix(1 0 0 1 52.3796 32.0057)" class="st22 st23 st24">Oops!</text>
		</g>
	</g>
</g>
</svg>
