<?xml version="1.0" encoding="utf-8"?>
<!-- Generator: Adobe Illustrator 22.0.1, SVG Export Plug-In . SVG Version: 6.00 Build 0)  -->
<svg version="1.1" id="Layer_1" xmlns="http://www.w3.org/2000/svg" xmlns:xlink="http://www.w3.org/1999/xlink" x="0px" y="0px"
	 viewBox="0 0 112.3 110" style="enable-background:new 0 0 112.3 110;" xml:space="preserve">
<style type="text/css">
	.st0{fill-rule:evenodd;clip-rule:evenodd;fill:#293861;}
	.st1{fill-rule:evenodd;clip-rule:evenodd;fill:#F1B8A8;}
	.st2{fill-rule:evenodd;clip-rule:evenodd;fill:url(#SVGID_1_);}
	.st3{fill-rule:evenodd;clip-rule:evenodd;fill:#FECB13;}
	.st4{fill-rule:evenodd;clip-rule:evenodd;fill:#F9CAB8;}
	.st5{fill-rule:evenodd;clip-rule:evenodd;fill:#455585;}
	.st6{fill-rule:evenodd;clip-rule:evenodd;fill:#31437A;}
	.st7{fill-rule:evenodd;clip-rule:evenodd;fill:#3B324A;}
	.st8{fill-rule:evenodd;clip-rule:evenodd;fill:#27212B;}
	.st9{fill-rule:evenodd;clip-rule:evenodd;fill:#2D3D6D;}
	.st10{fill-rule:evenodd;clip-rule:evenodd;fill:#75433B;}
	.st11{fill-rule:evenodd;clip-rule:evenodd;fill:#673434;}
	.st12{fill-rule:evenodd;clip-rule:evenodd;fill:#222D4E;}
	.st13{fill-rule:evenodd;clip-rule:evenodd;fill:#354881;}
	.st14{fill-rule:evenodd;clip-rule:evenodd;fill:#22304F;}
	.st15{fill-rule:evenodd;clip-rule:evenodd;fill:#562A41;}
	.st16{fill-rule:evenodd;clip-rule:evenodd;fill:#344884;}
	.st17{fill-rule:evenodd;clip-rule:evenodd;fill:url(#SVGID_2_);}
	.st18{fill-rule:evenodd;clip-rule:evenodd;fill:none;stroke:#373536;stroke-width:0.3556;stroke-miterlimit:10;}
	.st19{fill-rule:evenodd;clip-rule:evenodd;fill:#F2963C;}
</style>
<g>
	<g>
		<g>
			<path class="st0" d="M45.1,21.5c3.8-0.4,7,6,9.7,8.4c1.8,1.5,3.7,3.1,5.3,4.5c1.3,1.1,1.8,0.3,3.1-0.5c1-0.7,2-1.5,3.1-2.1
				c0.6-0.4,1.6-0.7,2-1.3c0.6,2,1,4,2.5,5.5c-2,2-4.1,4-6.4,5.4c-2.4,1.5-3.6,0.7-6.2-0.6c-2.5-1.2-5-2.9-7.6-4
				c-0.8-0.3-1.6-0.3-2.2-1.2c-0.9-1.2-0.5-2.9-0.6-4.4c-0.1-2.4-0.6-4.7-1.4-7C46.3,23.4,45.1,21.5,45.1,21.5z"/>
			<path class="st1" d="M72.4,32.3c1.9-1.1,3.6-3.3,4.7-5.5c1.3-2.7,0.6-6,2.6-8.4c0.4-0.5,2.3-1.6,2.1-2.4
				c-0.4-1.4-3.3,0.4-3.9,0.7c-2.9,1.6-3.8,2-5.1,5.3c-1.1,2.9-2.5,7.4-2.3,8.7C70.8,32.7,71.9,32.5,72.4,32.3z"/>
			<g>
				
					<linearGradient id="SVGID_1_" gradientUnits="userSpaceOnUse" x1="17.26" y1="30.9403" x2="19.8678" y2="21.1886" gradientTransform="matrix(-1 0 0 1 112.2825 0)">
					<stop  offset="0" style="stop-color:#FECD12"/>
					<stop  offset="1" style="stop-color:#F29424"/>
				</linearGradient>
				<path class="st2" d="M103.6,0.1C98.5,1.5,93.3,2.9,88,4.4c-5.2,1.5-10.5,2.9-15.8,4.4c-1.2,0.3-1.8,1.8-1.4,3.2
					c2.2,7.4,4.4,14.6,6.6,21.7c0.4,1.4,1.7,2.2,2.9,1.9c5.1-1.5,10.3-3,15.3-4.5c5.1-1.5,10.1-2.9,15.1-4.4
					c1.1-0.3,1.8-1.7,1.4-3.1c-1.9-7.1-3.8-14.3-5.7-21.6C106,0.7,104.8-0.3,103.6,0.1z"/>
				<path class="st3" d="M70.7,10.5c7,4.7,13.9,9.4,20.7,14c1.6,1.1,3.4,0.5,4.2-1.2c3.3-7.4,6.7-14.9,10-22.5
					c-0.6-0.6-1.4-0.9-2.1-0.7C98.5,1.5,93.3,2.9,88,4.4c-5.2,1.5-10.5,2.9-15.8,4.4C71.4,9,70.9,9.7,70.7,10.5z"/>
			</g>
			<path class="st4" d="M72.1,31.8c2.4-0.6,3.6-3.5,3.4-6c-0.1-1.6,1.6-4.2,0.9-5.7c-1.1-2.4-2.3,1.4-2.5,2.1
				c-0.7,1.9-2.2,3.2-2.9,5.1c-0.3,0.9-0.5,2.5,0,3.4C71.6,31.7,73.3,32.2,72.1,31.8z"/>
			<path class="st5" d="M71,36.2c0.8-0.7,1.9-1.5,2.6-2.5c-0.9-0.8-2.8-3.9-2.9-5.3c-0.2-0.7-2.1,1.3-2.6,1.9
				C68,31.1,68.8,33.7,71,36.2z"/>
		</g>
		<g>
			<path class="st6" d="M40.6,12.9c-1.6,0.7-8.3,4.9-9.4,6.3C28.6,22.6,25.5,43,25.3,49c-0.2,6.3,6.8,7.9,10.9,9.1
				c1.6,0.5,4,1.4,5.6,0.9c1.4-0.4,1.6-2.1,1.9-3.4c1.3-5.9,2.2-12,3.8-17.9c1.1-4.3,2.8-7.1,3.7-11.8c0.6-3.1-3.5-4.9-5.2-6.8
				C45.6,18.5,41.1,12.5,40.6,12.9z"/>
			<path class="st7" d="M41.4,108.2c1.6,0.1,3.4-0.2,5.1,0.1c1.4,0.3,2.8,0.9,4.2,1c1.1,0.1,4.7-1.1,4.5-2.6c-0.1-1-1-1.4-1.8-1.4
				c-1.8-0.1-5.1,0-6.3-2c-1.6-1-2.4-0.8-4.2-0.8c-1.3,0-3.8-0.3-4.4,1.4C38.2,105.2,37.2,108,41.4,108.2z"/>
			<path class="st8" d="M41.3,109.4c1.3,0.3,2.3-0.1,3.5-0.4c1-0.2,1.6,0,2.6,0.4c1.9,0.7,4.3,1,6.3,0.1c0.7-0.4,1.7-1.3,1.7-2.2
				c-0.1-0.4-0.2-0.6-0.3-0.8c0.2,1.5-3.3,2.5-4.5,2.4c-1.4-0.1-2.8-0.7-4.2-1c-1.6-0.4-3.4,0-5.1-0.1c-2.5-0.1-3.1-1.2-3.2-2.3l0,0
				C37.9,106.3,37.1,108.4,41.3,109.4z"/>
			<path class="st0" d="M33.4,72.9c-0.2,1.2,0.7,1.3,1.2,2.1c0.5,0.9,0.7,2.2,0.9,3.2c0.6,2.9,2,5.9,2.2,8.7
				c0.3,3.1-0.7,5.8,0.3,8.7c0.4,1.2,0.3,2.2,0.1,3.4c-0.1,1.1,0.4,1.8,0.4,2.9c0.1,2.1-1.6,4.3,1.3,4.9c2.1,0.4,5.3-0.6,6.6-2.4
				c1.6-2.4-1.5-3.1-0.6-5.7c0.4-1.2,1.1-2.2,1.3-3.6c0.4-2.5-0.2-5.2-0.5-7.7c-0.3-3,0-5.9,0-8.9c0-2.4-0.5-6.4-0.7-9.6
				c-1.7-2.3-6.5,1.5-8.4,1.9C36.6,71,33,71.5,33.4,72.9z"/>
			<path class="st7" d="M1.3,86.4c-0.9,1.9-0.3,2.7,1.3,3.9c0.9,0.8,1.9,1.2,2.8,1.8c1,0.6,1.1,1.2,1.5,2.2c1,2.4,4.5,5.4,7,4.8
				c2.3-0.6,0.6-2.3-0.5-3.2c-1.4-1.1-2.2-2.2-2.5-4.3c-1.1-1.9-3.2-2.9-4.8-4.4c-0.9-0.9-0.4-2.4-1.6-2.7
				C4.4,84.7,1.8,85.4,1.3,86.4z"/>
			<path class="st8" d="M1.6,86c-1.1,0.6-3,3.2,0.2,4.7c1.7,0.8,3,1.8,4,3.5c1.5,2.5,2.9,4.5,5.4,5.2c1.2,0.3,2.7,0.9,3.6-0.1
				c0.2-0.3,0.3-0.8,0.3-1.2l0,0c-0.1,0.3-0.4,0.6-1.1,0.8c-2.4,0.6-6.1-2.7-7-5.1c-0.4-1.1-0.5-1.6-1.5-2.2c-0.9-0.6-1.9-1-2.8-1.8
				C1.1,88.5,0.6,87.9,1.6,86L1.6,86z"/>
			<path class="st9" d="M12.1,90.5c0.3-0.5,1.2-0.5,1.6-0.7c1.3-0.4,2.5-0.8,3.7-1.4c1.7-0.9,4-1.5,5.5-2.6c0.4-0.3,0.6-0.8,1-1.1
				c0.6-0.5,1.5-0.5,2.2-0.8c1.6-0.7,2.7-2.3,4.1-3.3c1.5-1.1,2.6-1.8,3.6-3.6c1.3-2.5,0.8-5.5-2.1-6c-2-0.3-3.9-1.6-5.8-1.9
				c-1.7-0.2-1.6,0.8-1.5,2.3c-0.9,0.3-1.4,0.9-1.2,1.9c-0.8,0.8-2,0.9-2.9,1.7c-1.1,1-2.3,1.9-3.5,2.7c-1.4,0.9-2.7,1.9-4,2.9
				c-0.5,0.4-1.7,1.1-2.3,1.2c-0.1,0-0.4-0.5-0.6-0.5c-0.5,0.1-0.7,0.6-1.1,0.8c-0.6,0.4-1.2,0.4-1.8,0.7c-1.1,0.4-2.1,0.8-2.4,2.1
				c-0.3,1.8,1.1,4.8,2.4,5.9c0.9,0.8,2.5,1.4,3.6,1.7C12.7,93.1,11.5,91.3,12.1,90.5z"/>
			<g>
				<path class="st10" d="M21.6,65.3c0.6,2.2,1,4.6,3,5.6c3.6,1.7,7.7,1.9,11.5,2.3c4.1,0.4,11.4-1.2,11.3-7c0-2.2,0-4.5-0.3-6.7
					c-0.2-2.2-0.6-4.6-0.6-6.9c0-1.2,0.8-2.8,0-3.8c-1.6-2.1-2.5,2.6-2.8,3.6c-1.6,7.4-15.6-2.5-22.6-1.4
					C19.4,51.4,20.4,59.1,21.6,65.3z"/>
				<path class="st11" d="M23.3,68.6c5.3,3.7,13.5,3.2,18.9,1c5.5-2.3,4.1-3.1,3.7-9.1c-0.3-4.1,0.6-8.2,0.2-12.2
					c-8.5,0.6-18,1.1-26.5,1.5C19.6,52.5,20.7,66.9,23.3,68.6z"/>
				<path class="st11" d="M45.4,50.2c-0.1-2,0.8-9.5,1-11.3c0.6-5.5,1.4-9.7,2.6-16c0.4-0.1,0.5,0.1,0.8,0.3
					c0.6,0.5-3.2,16.9-2.9,27.4C46.6,50.4,45.3,50.1,45.4,50.2z"/>
			</g>
		</g>
		<g>
			<path class="st12" d="M49.4,23.4c0.4-0.1,0.8-0.2,1.3-0.3c0.1,0.8,0.2,1.6,0.3,2.4C50.4,24.8,49.9,24.1,49.4,23.4z"/>
			<path class="st0" d="M46.6,19c1.7,1.4,2.9,2.2,4,4.1c-0.9,0.4-2.9,2.4-4.7,3.6C45.9,26.6,46.2,19.4,46.6,19z"/>
			<path class="st13" d="M47.1,21.6c-0.2,1.9-0.7,3.3-1.1,5.1c-1.2-2.8-1.4-3.2-2.2-5.5C44.3,20.4,46,20.8,47.1,21.6z"/>
			<path class="st14" d="M60.7,7.3c-0.3,0.9-3.3,0.5-4.9,0.7c-0.5-0.8-0.2-0.8-0.7-1.6C56.1,6.4,59.6,6,60.7,7.3z"/>
			<path class="st4" d="M46.7,20.9c1-1.1,2.2-2.6,3.8-2.6c5.6,0.9,4.3,0.7,5.4-3.4c0.1-1,0.9-0.9,1.5-0.9c0.7,0,0.6-0.6,0.4-1.2
				c-0.7-1.5-1-2.5-1.4-3.5c-0.6-1.5,0.3-2.7-1.1-3.7c-2.2-1.7-6.9-0.9-8.9-0.3c-1.4,0.4-2.7,1.2-3.1,2.8c-0.3,1.3,0.2,2.5-0.4,3.6
				c-0.5,0.8-1.2,1.5-1.8,2.1c0.5,2.2,1.1,4.7,3.1,6C45.7,21,46.3,21.2,46.7,20.9z"/>
			<path class="st15" d="M47,6.2c0.8,1.1,2.9,7.1,3.7,2.8c0.2-1.1,0.8-2.1,0.9-3.2C50.7,5.3,47,5.4,47,6.2z"/>
			<path class="st15" d="M46.7,7C45.7,7.1,46,9.3,46,10.3c-0.1,1.5-0.8,2.5-2,2.9c-0.4,0.1-1.5,0.4-1.9,0.1c-0.9-0.7-0.2-1.6,0-2.4
				c0.4-1.5-0.2-3.3,1.2-3.9C43.9,6.6,46.4,5.7,46.7,7z"/>
			<path class="st16" d="M42.2,9.5c5.2-1,13.7-4.2,18.5-2.2c0.2-1.4-5-1.4-5.2-1.5c-0.5-0.5-0.4-3.4-1.3-4.6c-1-1.2-5.3-0.2-6.4-0.1
				C46.1,1.4,41.9,2.2,41,4C40.3,5.3,42,7.2,42.2,9.5z"/>
			<path class="st11" d="M54.8,8.8c-0.6-0.2-1.8,0.4-1.5,0.9c0.3,0.5,0.8,0.9,1.3,0.8C54.2,9.8,54.3,8.8,54.8,8.8z"/>
			<path class="st1" d="M54.5,18.7c-1.9-0.9-3.2-1.6-4.3-4.2c-0.3-0.6-0.7-2.4-1.5-2.5c-1.5-0.1-0.7,3.3-0.4,4.1
				c0.3,0.9,0.8,1.7,1.3,2.4c0.2-0.1,0.5-0.1,0.7-0.1C52.8,18.7,53.9,18.9,54.5,18.7z"/>
			<path class="st5" d="M41.6,12.3c1.2,1.8,4.4,7.2,5.5,9.3C46,22,45.3,22.2,44,22.5c-0.9,0.2-1-0.3-1.4-1.4c-1-2.4-1.9-4.6-2.5-7
				c-0.1-0.5-0.1-0.7,0.3-1.1C40.6,12.6,41.5,12.2,41.6,12.3z"/>
		</g>
		<g>
			<path class="st0" d="M40.9,33.3c-4.3-0.9-8.7-1.8-13.1-2.7c-1.4,6.9-2.4,14.9-2.5,18.4c0,0.2,0,0.4,0,0.6
				c-1.9,0.1-3.8,0.2-5.6,0.3c-0.1,1.5,0.3,7,1.1,11.6c5.8,1.1,11.5,2.1,17.1,3.2c2,0.4,3.8-1.2,4-3.4c0.8-7.5,1.5-15.2,2.3-23
				c0.1-0.8,0-1.6-0.3-2.4c0,0,0,0,0,0c-0.3-0.7-0.8-1.4-1.4-1.9C42.1,33.7,41.5,33.4,40.9,33.3C40.9,33.3,40.9,33.3,40.9,33.3z"/>
			<g>
				
					<linearGradient id="SVGID_2_" gradientUnits="userSpaceOnUse" x1="93.0041" y1="56.5717" x2="90.8891" y2="45.4506" gradientTransform="matrix(-1 0 0 1 112.2825 0)">
					<stop  offset="0" style="stop-color:#FECD12"/>
					<stop  offset="1" style="stop-color:#F29424"/>
				</linearGradient>
				<path class="st17" d="M40.8,34.8c-5.9-1.2-11.8-2.4-17.7-3.6c-6-1.2-12.1-2.5-18.2-3.7c-1.4-0.3-2.6,0.8-2.7,2.4
					c-0.5,8-1,16-1.5,23.8c-0.1,1.5,0.9,3,2.3,3.2c6,1.1,11.9,2.2,17.7,3.3c5.8,1.1,11.6,2.1,17.3,3.2c1.3,0.2,2.5-0.8,2.6-2.2
					c0.8-7.5,1.5-15.2,2.3-23C43.1,36.5,42.1,35.1,40.8,34.8z"/>
				<path class="st3" d="M2.6,28.4c5.5,7.9,11,15.7,16.3,23.3c1.2,1.8,3.4,2.2,4.9,0.9c6.3-5.4,12.6-10.7,19-16.1
					c-0.4-0.9-1.1-1.5-1.9-1.7c-5.9-1.2-11.8-2.4-17.7-3.6c-6-1.2-12.1-2.5-18.2-3.7C4,27.3,3.1,27.7,2.6,28.4z"/>
			</g>
			<path class="st18" d="M21.8,46.9c-0.4,1.4,0.9,3,0.9,1c0-0.9-1-1.8-1-0.5"/>
			<path class="st4" d="M18.2,49c0.3,2.5-1.1,4.9-0.9,7.4c0.1,1,2.7,5.3,2.9,3.7c0.2,0.7,1.6,1.9,1.9,0.7c0.2,0.7,1.2,1.6,1.5,0.5
				c0.5,0.6,2,1.6,2.2,0.6c0.3-1.2-1.4-3.2-1.4-4.7c0.1-1.8,0.7-1.2,1.2-0.3c0.7,1.1,0.7,2.9,2.4,2.2c0.1-0.1-0.7-2.8-1.2-3.7
				c-0.6-1.2-1.1-1.9-1.9-3c-0.9-1.2-1.2-3.2-2.7-3.6C19.7,48.1,19.3,48,18.2,49z"/>
			<path class="st5" d="M24,50c0.2,0.3-0.3-2.2,0-3.8c-0.9,0.5-5.5-0.5-6.5-1.1c-0.4,0.3,0.1,3.5,0.3,4.3C18.4,49.8,21.5,51,24,50z"
				/>
			<path class="st16" d="M24.3,46.4c0.2-0.9,0-1.8,0-2.8c0.1-1.5,0.4-2.8,0.7-4.2c0.2-1,0.2-6.3,0.2-6.3c0.6-1.4,5-0.9,6.2-1.3
				c2.2-0.7,3.7-2.1,5.3-3.7c2.8-2.7,3.5-12.7-2.2-11.5c-1.8,0.3-3.5,1.9-5.1,2.8c-2,1.1-4,2.3-6.1,3.4c-2.6,1.4-6,2.8-6.3,6.6
				c-0.2,3.5,0,7.1,0.1,10.5c0,1.5-0.7,4.3,0.1,5.5C17.6,46.5,23.3,48.2,24.3,46.4z"/>
		</g>
	</g>
	<path class="st19" d="M87,17c0.6,0.6,1.2,1,1.7,1.3c0.5,0.2,1.1,0.4,1.8,0.4c0.9,0,1.7-0.2,2.5-0.6c0.7-0.4,1.3-1,1.7-1.7
		c0.4-0.7,0.6-1.5,0.6-2.4c0-0.9-0.2-1.6-0.6-2.4c-0.4-0.7-1-1.3-1.7-1.7c-0.7-0.4-1.5-0.6-2.4-0.6c-1.2,0-2.2,0.3-3,1.1
		c-0.9,0.8-1.3,1.7-1.3,2.9c0,0.6,0.1,1.1,0.4,1.6c0.2,0.5,0.6,0.9,1,1.2c0.4,0.3,0.8,0.5,1,0.5c0.1,0,0.2,0,0.2-0.1
		c0.1-0.1,0.1-0.1,0.1-0.2c0,0,0-0.1,0-0.3l-0.8-4.4h0.7l0.2,0.9c0.2-0.4,0.5-0.6,0.8-0.8c0.3-0.1,0.6-0.2,1-0.2
		c0.9,0,1.6,0.3,2.1,1c0.5,0.7,0.8,1.4,0.8,2.2c0,0.7-0.2,1.3-0.6,1.8c-0.4,0.4-1,0.7-1.6,0.7c-0.3,0-0.6-0.1-0.8-0.2
		c-0.3-0.1-0.5-0.3-0.6-0.5c0,0.3-0.1,0.4-0.2,0.5c-0.2,0.1-0.4,0.2-0.6,0.2c-0.4,0-0.8-0.1-1.3-0.4c-0.7-0.3-1.2-0.8-1.6-1.4
		c-0.4-0.6-0.6-1.3-0.6-2.2c0-1.2,0.5-2.2,1.4-3.1C88,9,89.2,8.6,90.5,8.6c1,0,1.9,0.2,2.7,0.7c0.8,0.5,1.5,1.1,1.9,1.9
		c0.5,0.8,0.7,1.7,0.7,2.7c0,1-0.2,1.8-0.7,2.6c-0.5,0.8-1.1,1.4-2,1.9c-0.8,0.5-1.7,0.7-2.7,0.7c-0.9,0-1.8-0.2-2.5-0.6
		c-0.5-0.3-1.1-0.8-1.7-1.6H87L87,17z M92.2,15.6c0.3-0.3,0.4-0.8,0.4-1.3c0-0.7-0.2-1.2-0.6-1.7c-0.4-0.4-0.9-0.7-1.4-0.7
		c-0.4,0-0.7,0.1-1,0.4c-0.3,0.3-0.4,0.7-0.4,1.1c0,0.5,0.1,1,0.3,1.5c0.2,0.4,0.4,0.7,0.6,0.8c0.3,0.2,0.5,0.3,0.8,0.3
		C91.6,16.1,92,15.9,92.2,15.6z"/>
</g>
</svg>
