<?xml version="1.0" encoding="utf-8"?>
<!-- Generator: Adobe Illustrator 22.0.1, SVG Export Plug-In . SVG Version: 6.00 Build 0)  -->
<svg version="1.1" id="Layer_1" xmlns="http://www.w3.org/2000/svg" xmlns:xlink="http://www.w3.org/1999/xlink" x="0px" y="0px"
	 viewBox="0 0 200 81" style="enable-background:new 0 0 200 81;" xml:space="preserve">
<style type="text/css">
	.st0{fill:#0C1632;}
</style>
<g>
	<g>
		<g>
			<g>
				<path class="st0" d="M76,33.9c-3.1,0-4.6-0.8-6.1-1.6c-1.5-0.8-2.9-1.5-5.7-1.5c-2.9,0-4.3,0.7-5.7,1.5c-1.5,0.8-3,1.6-6.1,1.6
					c-3,0-4.6-0.8-6.1-1.6c-1.5-0.8-2.9-1.5-5.7-1.5c-2.9,0-4.3,0.7-5.7,1.5c-1.5,0.8-3,1.6-6.1,1.6s-4.6-0.8-6.1-1.6
					c-1.5-0.8-2.9-1.5-5.7-1.5v-0.8c3,0,4.6,0.8,6.1,1.6c1.5,0.8,2.9,1.5,5.7,1.5c2.9,0,4.3-0.7,5.7-1.5c1.5-0.8,3-1.6,6.1-1.6
					c3,0,4.6,0.8,6.1,1.6c1.5,0.8,2.9,1.5,5.7,1.5c2.9,0,4.3-0.7,5.7-1.5c1.5-0.8,3-1.6,6.1-1.6c3.1,0,4.6,0.8,6.1,1.6
					c1.5,0.8,2.9,1.5,5.7,1.5V33.9z"/>
			</g>
			<g>
				<path class="st0" d="M76,37.6c-3.1,0-4.6-0.8-6.1-1.6c-1.5-0.8-2.9-1.5-5.7-1.5c-2.9,0-4.3,0.7-5.7,1.5c-1.5,0.8-3,1.6-6.1,1.6
					c-3,0-4.6-0.8-6.1-1.6c-1.5-0.8-2.9-1.5-5.7-1.5c-2.9,0-4.3,0.7-5.7,1.5c-1.5,0.8-3,1.6-6.1,1.6s-4.6-0.8-6.1-1.6
					c-1.5-0.8-2.9-1.5-5.7-1.5v-0.8c3,0,4.6,0.8,6.1,1.6c1.5,0.8,2.9,1.5,5.7,1.5c2.9,0,4.3-0.7,5.7-1.5c1.5-0.8,3-1.6,6.1-1.6
					c3,0,4.6,0.8,6.1,1.6c1.5,0.8,2.9,1.5,5.7,1.5c2.9,0,4.3-0.7,5.7-1.5c1.5-0.8,3-1.6,6.1-1.6c3.1,0,4.6,0.8,6.1,1.6
					c1.5,0.8,2.9,1.5,5.7,1.5V37.6z"/>
			</g>
			<g>
				<path class="st0" d="M76,41.3c-3.1,0-4.6-0.8-6.1-1.6c-1.5-0.8-2.9-1.5-5.7-1.5c-2.9,0-4.3,0.7-5.7,1.5c-1.5,0.8-3,1.6-6.1,1.6
					c-3,0-4.6-0.8-6.1-1.6c-1.5-0.8-2.9-1.5-5.7-1.5c-2.9,0-4.3,0.7-5.7,1.5c-1.5,0.8-3,1.6-6.1,1.6c-3,0-4.6-0.8-6.1-1.6
					c-1.5-0.8-2.9-1.5-5.7-1.5v-0.8c3,0,4.6,0.8,6.1,1.6c1.5,0.8,2.9,1.5,5.7,1.5c2.9,0,4.3-0.7,5.7-1.5c1.5-0.8,3-1.6,6.1-1.6
					c3,0,4.6,0.8,6.1,1.6c1.5,0.8,2.9,1.5,5.7,1.5c2.9,0,4.3-0.7,5.7-1.5c1.5-0.8,3-1.6,6.1-1.6c3.1,0,4.6,0.8,6.1,1.6
					c1.5,0.8,2.9,1.5,5.7,1.5V41.3z"/>
			</g>
			<g>
				<path class="st0" d="M76,45c-3.1,0-4.6-0.8-6.1-1.6C68.4,42.7,67,42,64.2,42c-2.9,0-4.3,0.7-5.7,1.5c-1.5,0.8-3,1.6-6.1,1.6
					c-3,0-4.6-0.8-6.1-1.6c-1.5-0.8-2.9-1.5-5.7-1.5c-2.9,0-4.3,0.7-5.7,1.5c-1.5,0.8-3,1.6-6.1,1.6s-4.6-0.8-6.1-1.6
					c-1.5-0.8-2.9-1.5-5.7-1.5v-0.8c3,0,4.6,0.8,6.1,1.6c1.5,0.8,2.9,1.5,5.7,1.5c2.9,0,4.3-0.7,5.7-1.5c1.5-0.8,3-1.6,6.1-1.6
					c3,0,4.6,0.8,6.1,1.6c1.5,0.8,2.9,1.5,5.7,1.5c2.9,0,4.3-0.7,5.7-1.5c1.5-0.8,3-1.6,6.1-1.6c3.1,0,4.6,0.8,6.1,1.6
					c1.5,0.8,2.9,1.5,5.7,1.5V45z"/>
			</g>
			<g>
				<path class="st0" d="M76,48.7c-3.1,0-4.6-0.8-6.1-1.6c-1.5-0.8-2.9-1.5-5.7-1.5c-2.9,0-4.3,0.7-5.7,1.5c-1.5,0.8-3,1.6-6.1,1.6
					c-3,0-4.6-0.8-6.1-1.6c-1.5-0.8-2.9-1.5-5.7-1.5c-2.9,0-4.3,0.7-5.7,1.5c-1.5,0.8-3,1.6-6.1,1.6c-3,0-4.6-0.8-6.1-1.6
					c-1.5-0.8-2.9-1.5-5.7-1.5v-0.8c3,0,4.6,0.8,6.1,1.6c1.5,0.8,2.9,1.5,5.7,1.5c2.9,0,4.3-0.7,5.7-1.5c1.5-0.8,3-1.6,6.1-1.6
					c3,0,4.6,0.8,6.1,1.6c1.5,0.8,2.9,1.5,5.7,1.5c2.9,0,4.3-0.7,5.7-1.5c1.5-0.8,3-1.6,6.1-1.6c3.1,0,4.6,0.8,6.1,1.6
					c1.5,0.8,2.9,1.5,5.7,1.5V48.7z"/>
			</g>
			<g>
				<path class="st0" d="M76,52.8c-3.1,0-4.6-0.8-6.1-1.6c-1.5-0.8-2.9-1.5-5.7-1.5c-2.9,0-4.3,0.7-5.7,1.5c-1.5,0.8-3,1.6-6.1,1.6
					c-3,0-4.6-0.8-6.1-1.6c-1.5-0.8-2.9-1.5-5.7-1.5c-2.9,0-4.3,0.7-5.7,1.5c-1.5,0.8-3,1.6-6.1,1.6s-4.6-0.8-6.1-1.6
					c-1.5-0.8-2.9-1.5-5.7-1.5V49c3,0,4.6,0.8,6.1,1.6c1.5,0.8,2.9,1.5,5.7,1.5c2.9,0,4.3-0.7,5.7-1.5c1.5-0.8,3-1.6,6.1-1.6
					c3,0,4.6,0.8,6.1,1.6c1.5,0.8,2.9,1.5,5.7,1.5c2.9,0,4.3-0.7,5.7-1.5c1.5-0.8,3-1.6,6.1-1.6c3.1,0,4.6,0.8,6.1,1.6
					c1.5,0.8,2.9,1.5,5.7,1.5V52.8z"/>
			</g>
		</g>
		<g>
			<path class="st0" d="M87.2,26.2L86.6,29h6.8l-0.8,4.2h-6.8l-1,5.2h-5.5l3.3-16.3h13.3l-0.8,4.2H87.2z"/>
			<path class="st0" d="M97.5,22.1h5.5l-3.3,16.3h-5.5L97.5,22.1z"/>
			<path class="st0" d="M118.7,31.2c-0.8,1.1-1.9,1.9-3.3,2.4l2.7,4.8h-5.7l-2.3-4.1h-1.4l-0.8,4.1h-5.5l3.3-16.3h7.3
				c2.1,0,3.8,0.5,5,1.4c1.2,0.9,1.8,2.3,1.8,4C119.8,28.9,119.4,30.1,118.7,31.2z M112.2,26.3h-1.8l-0.8,3.8h2.3
				c0.8,0,1.4-0.2,1.8-0.6c0.4-0.4,0.6-0.9,0.6-1.6C114.2,26.9,113.6,26.3,112.2,26.3z"/>
			<path class="st0" d="M142.6,22.1l-3.2,16.3h-5l1.4-7.4l-4.6,6h-2.4l-2.5-5.9l-1.5,7.3h-5l3.3-16.3h4.5l3.5,8.7l6.8-8.7H142.6z"/>
			<path class="st0" d="M154,35.5h-6.2l-1.6,2.8h-5.8l10.4-16.3h5.4l3.9,16.3h-5.5L154,35.5z M153.2,31.6l-0.8-4.2l-2.4,4.2H153.2z"
				/>
		</g>
		<g>
			<path class="st0" d="M81.7,60c-1.2-0.3-2.3-0.7-3.1-1.2l2.1-4.1c1.8,1,3.6,1.5,5.5,1.5c0.7,0,1.2-0.1,1.6-0.3
				c0.4-0.2,0.6-0.4,0.6-0.7c0-0.3-0.2-0.5-0.6-0.7c-0.4-0.2-1-0.4-1.8-0.6c-1.1-0.3-2-0.6-2.7-0.9c-0.7-0.3-1.3-0.7-1.9-1.3
				c-0.5-0.6-0.8-1.4-0.8-2.4c0-1.2,0.3-2.3,1-3.2c0.7-0.9,1.6-1.6,2.9-2.1c1.2-0.5,2.7-0.8,4.4-0.8c1.2,0,2.3,0.1,3.4,0.4
				c1,0.2,2,0.6,2.7,1l-2,4c-0.6-0.4-1.3-0.7-2.1-0.9c-0.8-0.2-1.6-0.3-2.4-0.3c-0.8,0-1.4,0.1-1.8,0.3c-0.4,0.2-0.6,0.5-0.6,0.8
				c0,0.3,0.2,0.5,0.6,0.7c0.4,0.2,1,0.4,1.9,0.6c1.1,0.2,1.9,0.5,2.7,0.8c0.7,0.3,1.3,0.7,1.9,1.3c0.5,0.6,0.8,1.4,0.8,2.3
				c0,1.2-0.3,2.3-1,3.2c-0.7,0.9-1.6,1.6-2.9,2.1c-1.2,0.5-2.7,0.8-4.4,0.8C84.3,60.5,83,60.3,81.7,60z"/>
			<path class="st0" d="M102.4,47.9l-0.4,1.9h6.9l-0.8,4h-6.9l-0.4,2.1h8.2l-0.8,4.2H94.6l3.3-16.3h13.3l-0.8,4.2H102.4z"/>
			<path class="st0" d="M122.8,51.5h4.8l-1.4,7c-0.9,0.6-1.9,1.1-3,1.4c-1.1,0.3-2.3,0.5-3.6,0.5c-1.7,0-3.1-0.3-4.4-0.9
				c-1.3-0.6-2.2-1.5-2.9-2.6c-0.7-1.1-1-2.4-1-3.8c0-1.9,0.4-3.6,1.3-5.1c0.9-1.5,2.1-2.6,3.7-3.5c1.6-0.8,3.4-1.2,5.5-1.2
				c3.4,0,5.9,1.1,7.4,3.2l-3.9,3.1c-0.5-0.7-1.1-1.1-1.7-1.4c-0.6-0.3-1.3-0.4-2.1-0.4c-0.9,0-1.8,0.2-2.5,0.6
				c-0.7,0.4-1.3,1-1.6,1.8s-0.6,1.6-0.6,2.6c0,1,0.3,1.7,1,2.3c0.6,0.6,1.5,0.9,2.6,0.9c0.6,0,1.1-0.1,1.6-0.2L122.8,51.5z"/>
			<path class="st0" d="M132.7,59.7c-1.1-0.5-1.9-1.2-2.4-2.1c-0.6-0.9-0.9-2-0.9-3.2c0-0.5,0.1-1.1,0.2-1.7l1.8-9h5.5l-1.8,8.9
				c-0.1,0.4-0.1,0.8-0.1,1.2c0,0.7,0.2,1.3,0.6,1.6c0.4,0.4,0.9,0.5,1.6,0.5c0.8,0,1.4-0.3,1.9-0.8c0.5-0.5,0.8-1.4,1.1-2.6
				l1.8-8.9h5.4l-1.8,9.2c-0.5,2.5-1.5,4.3-3,5.6c-1.5,1.3-3.5,1.9-6,1.9C135,60.5,133.7,60.2,132.7,59.7z"/>
			<path class="st0" d="M162.7,52.9c-0.8,1.1-1.9,1.9-3.3,2.4l2.7,4.8h-5.7l-2.3-4.1h-1.4l-0.8,4.1h-5.5l3.3-16.3h7.3
				c2.1,0,3.8,0.5,5,1.4c1.2,0.9,1.8,2.3,1.8,4C163.9,50.6,163.5,51.8,162.7,52.9z M156.3,48h-1.8l-0.8,3.8h2.3
				c0.8,0,1.4-0.2,1.8-0.6c0.4-0.4,0.6-0.9,0.6-1.6C158.3,48.6,157.6,48,156.3,48z"/>
			<path class="st0" d="M168.7,59.6c-1.3-0.6-2.2-1.5-2.9-2.6c-0.7-1.1-1-2.4-1-3.8c0-1.9,0.4-3.6,1.3-5.1c0.9-1.5,2.1-2.6,3.7-3.5
				c1.6-0.8,3.3-1.2,5.3-1.2c1.7,0,3.1,0.3,4.4,0.9c1.3,0.6,2.2,1.5,2.9,2.6c0.7,1.1,1,2.4,1,3.8c0,1.9-0.4,3.6-1.3,5.1
				c-0.9,1.5-2.1,2.6-3.7,3.5c-1.6,0.8-3.3,1.2-5.3,1.2C171.4,60.5,170,60.2,168.7,59.6z M175.8,55.3c0.6-0.5,1.1-1.1,1.5-1.8
				c0.3-0.8,0.5-1.6,0.5-2.5c0-1-0.3-1.7-0.9-2.3c-0.6-0.6-1.3-0.9-2.3-0.9c-0.9,0-1.6,0.2-2.3,0.7c-0.6,0.5-1.1,1.1-1.5,1.8
				c-0.3,0.8-0.5,1.6-0.5,2.5c0,1,0.3,1.7,0.9,2.3c0.6,0.6,1.3,0.9,2.3,0.9C174.4,56,175.2,55.8,175.8,55.3z"/>
		</g>
		<g>
			<path class="st0" d="M47.1,66.5c-14.3,0-25.8-11.6-25.8-25.8s11.6-25.8,25.8-25.8S73,26.4,73,40.6S61.4,66.5,47.1,66.5z
				 M47.1,19.7c-11.5,0-20.9,9.4-20.9,20.9c0,11.5,9.4,20.9,20.9,20.9c11.5,0,20.9-9.4,20.9-20.9C68,29.1,58.7,19.7,47.1,19.7z"/>
			<g>
				<path class="st0" d="M39.9,34.3c1.9-2.1,4.6-3.4,7.7-3.3c2.7,0.1,5.1,1.3,6.8,3.1l5.9-2.6c-2.8-3.9-7.3-6.5-12.4-6.7
					c-5.7-0.2-10.8,2.6-13.8,7L39.9,34.3z"/>
				<path class="st0" d="M56.8,39.9c0,0.4,0.1,0.8,0,1.3c-0.2,4.2-2.9,7.6-6.6,8.9l0,6.4c7.1-1.4,12.6-7.5,12.9-15.1
					c0.1-1.4-0.1-2.8-0.4-4.1L56.8,39.9z"/>
				<path class="st0" d="M44,50c-4-1.3-6.8-5.2-6.6-9.6c0-0.1,0-0.2,0-0.4l-5.9-2.5c-0.2,0.9-0.3,1.7-0.3,2.6
					c-0.3,8,5.3,14.8,12.9,16.3L44,50z"/>
			</g>
		</g>
	</g>
	<g>
		<path class="st0" d="M200,81.3H0.3V0H200V81.3z M1.6,79.9h197.1V1.3H1.6V79.9z"/>
	</g>
</g>
</svg>
