<?xml version="1.0" encoding="utf-8"?>
<!-- Generator: Adobe Illustrator 22.0.1, SVG Export Plug-In . SVG Version: 6.00 Build 0)  -->
<svg version="1.1" id="Layer_1" xmlns="http://www.w3.org/2000/svg" xmlns:xlink="http://www.w3.org/1999/xlink" x="0px" y="0px"
	 viewBox="0 0 26.5 55.3" style="enable-background:new 0 0 26.5 55.3;" xml:space="preserve">
<style type="text/css">
	.st0{fill:#BFC6D6;}
	.st1{fill:#F8C9C6;}
	.st2{fill:#DA7972;}
	.st3{fill:#1F3052;}
	.st4{fill:#E41F4C;}
	.st5{fill:none;stroke:#FFFFFF;stroke-width:9.816149e-02;stroke-miterlimit:10;}
	.st6{opacity:0.51;fill:#1F3052;}
	.st7{fill:#F8C9C6;stroke:#F8C9C6;stroke-width:0.1891;stroke-linecap:round;stroke-linejoin:round;stroke-miterlimit:10;}
	.st8{fill:#E09691;stroke:#E09691;stroke-width:0.1891;stroke-linecap:round;stroke-linejoin:round;stroke-miterlimit:10;}
	.st9{fill:#0D0C25;}
	.st10{fill:#FFFFFF;}
	.st11{fill:none;stroke:#1F3052;stroke-width:0.1601;stroke-miterlimit:10;}
	.st12{opacity:0.12;fill:#1F3052;}
	.st13{fill:#F6BBB7;}
	.st14{fill:#C02731;}
	.st15{fill:#F8F5EB;}
	.st16{fill:none;stroke:#E41F4C;stroke-width:0.2791;stroke-linecap:round;stroke-miterlimit:10;}
</style>
<g>
	<g>
		<path class="st0" d="M13.8,54.7c0,0.3-3,0.6-6.7,0.6c-3.7,0-6.7-0.3-6.7-0.6c0-0.3,3-0.6,6.7-0.6C10.8,54.1,13.8,54.4,13.8,54.7z"
			/>
		<path class="st0" d="M26.5,54.7c0,0.3-3,0.6-6.7,0.6c-3.7,0-6.7-0.3-6.7-0.6c0-0.3,3-0.6,6.7-0.6C23.6,54.1,26.5,54.4,26.5,54.7z"
			/>
	</g>
	<g>
		<g>
			<g>
				<g>
					<polygon class="st1" points="20.4,51.6 20.5,54.4 26.3,54.4 23,53 22.7,51.5 					"/>
					<polygon class="st2" points="22.7,51.5 20.5,54.4 20.4,51.6 					"/>
					<polygon class="st3" points="23.4,52.9 26.3,54.4 20.5,54.4 20.4,52.9 					"/>
					<rect x="20.5" y="54.4" class="st4" width="5.9" height="0.9"/>
					<g>
						<line class="st5" x1="23.7" y1="53.1" x2="23.1" y2="53.5"/>
						<line class="st5" x1="24.3" y1="53.3" x2="23.6" y2="53.7"/>
					</g>
				</g>
			</g>
			<g>
				<g>
					<polygon class="st1" points="13.9,51.4 14.3,54.4 8.5,54.4 11.8,52.9 11.7,51.2 					"/>
					<polygon class="st2" points="11.7,51.2 13.9,51.4 14.3,54.4 					"/>
					<polygon class="st3" points="11.4,52.9 8.5,54.4 14.3,54.4 14.1,52.9 					"/>
					<g>
						<line class="st5" x1="10.9" y1="53.1" x2="11.6" y2="53.5"/>
						<line class="st5" x1="10.4" y1="53.3" x2="11" y2="53.7"/>
					</g>
					<rect x="8.4" y="54.4" class="st4" width="5.9" height="0.9"/>
				</g>
			</g>
			<g>
				<path class="st3" d="M12,19.4l5.1,0.6c0,0,1.6,0.6,6.4,31.5l-3.2,0.1l-6.2-23.4c-0.1-0.3-0.6-0.3-0.6,0.1l1.1,23.3l-3.4-0.3
					c0,0-4.1-23.6-2.5-27.3C10.4,20.3,12,19.4,12,19.4z"/>
				<g>
					<path class="st5" d="M9,23.6c0,0,2,0.9,3.2-0.9c1.1-1.8,1.4-2.8,1.4-2.8"/>
					<path class="st5" d="M15.8,20c0,0-0.2,4.1,1,4.5c1.2,0.4,1.8,0.3,1.8,0.3"/>
					<line class="st5" x1="16.8" y1="24.5" x2="22.5" y2="51.5"/>
					<line class="st5" x1="10.2" y1="23.8" x2="12.6" y2="51.5"/>
				</g>
				<path class="st6" d="M17.1,20.1l-5.2-0.5c0,0-3.7,3.3-3.4,6.4L17.1,20.1z"/>
			</g>
		</g>
	</g>
	<g>
		<path d="M18.9,19.4C20.4,13,18,4.8,18,4.8l0,0c0-0.2-0.9-2-2.2-2.1c-4-0.2-13.7,8.3-15.3,9.5c-0.2,0.2,4.7,6.8,13.1,7.1
			C17,19.5,18.8,19.6,18.9,19.4z"/>
		<g>
			<g>
				<path d="M17.3,3.9C16,3,13.1,4.3,11.9,4.8C7.7,6.2,3.7,8.4,0.1,11c-0.1,0.1,0,0.3,0.1,0.2c3-2.1,6.2-3.9,9.7-5.4
					c1.5-0.6,5.7-2.8,7.3-1.7C17.3,4.2,17.4,4,17.3,3.9L17.3,3.9z"/>
			</g>
		</g>
		<g>
			<g>
				<path class="st7" d="M14.3,6.8c0,0-0.4,3.3-0.5,3.5c0,0,1.4,1.7,2.9,0.2c0,0-0.2-0.8-0.7-2.8L14.3,6.8z"/>
				<path d="M16.1,7.5c0,0.4-0.6,1-1.1,1c-0.5,0-0.9-0.8-1-1.2c0-0.3,0.8-0.7,1.2-0.6C15.7,6.7,16.1,7.1,16.1,7.5z"/>
			</g>
			<g>
				<g>
					<g>
						<path class="st7" d="M13.3,5.7l0.6,0l0,0.6l-0.6,0C13.2,6.3,13,6.2,13,6l0,0C13,5.9,13.1,5.7,13.3,5.7z"/>
						<path class="st8" d="M13.3,5.9l0.2,0l0,0.3l-0.2,0c-0.1,0-0.1,0-0.1-0.1l0,0C13.2,5.9,13.2,5.9,13.3,5.9z"/>
					</g>
					<g>
						<path class="st7" d="M17.2,6.1l-0.6,0l0-0.6l0.6,0c0.2,0,0.3,0.2,0.3,0.3l0,0C17.6,6,17.4,6.1,17.2,6.1z"/>
						<path class="st8" d="M17.3,5.6l-0.2,0l0,0.3l0.2,0c0.1,0,0.1,0,0.1-0.1l0,0C17.4,5.7,17.3,5.6,17.3,5.6z"/>
					</g>
					<path class="st7" d="M15.5,3.8L15.5,3.8c1.1,0.1,1.7,1,1.6,2.1l0,0.1c-0.1,1.1-1,2-1.9,1.9l0,0c-0.7-0.1-1.9-1.1-1.8-2.2l0-0.1
						C13.5,4.6,14.4,3.8,15.5,3.8z"/>
				</g>
				<g>
					<path class="st9" d="M15.6,6c0,0.1,0,0.1,0.1,0.1c0.1,0,0.1-0.1,0.1-0.1c0-0.1,0-0.1-0.1-0.1C15.7,5.8,15.6,5.9,15.6,6z"/>
					<path class="st9" d="M14.8,6c0,0.1,0,0.1,0.1,0.1C14.9,6.1,15,6.1,15,6c0-0.1,0-0.1-0.1-0.1C14.8,5.9,14.8,5.9,14.8,6z"/>
					<path class="st2" d="M15.2,6.4l0.3,0c0,0,0.1,0,0-0.1L15.4,6c0,0-0.1,0-0.1,0L15.2,6.4C15.1,6.4,15.1,6.4,15.2,6.4z"/>
					<path class="st9" d="M14.5,5.6c-0.1,0,0.1-0.2,0.2-0.2c0.1,0,0.2,0.1,0.2,0.2C14.9,5.6,14.7,5.6,14.5,5.6z"/>
					<path class="st9" d="M16.1,5.6c0.1,0-0.1-0.2-0.2-0.2c-0.1,0-0.2,0.1-0.2,0.2C15.7,5.6,15.9,5.6,16.1,5.6z"/>
					<path class="st10" d="M15.6,6.9c0.1-0.2-0.2-0.3-0.5-0.3c-0.3,0-0.5-0.2-0.5,0.1c-0.1,0.2,0.2,0.4,0.4,0.4
						C15.3,7.2,15.6,7.1,15.6,6.9z"/>
				</g>
			</g>
			<g>
				<path d="M14.4,3.9c2.2,0.9,2.8,1.6,2.8,1.6s0.1-2.5-2.6-2.1C12.8,3.6,14.2,3.8,14.4,3.9z"/>
				<path d="M14.6,3.8c0,0-0.6,1.3-0.8,1.5c-0.2,0.3-0.6,0.1-0.6,0.1S13.1,3.6,14.6,3.8z"/>
			</g>
		</g>
		<g>
			<path class="st10" d="M16.7,10.6l4.4,1.2l0.8,2.4c0.3,0.9-0.3,1.8-1.3,1.8h-2.2c0,0-0.5,3.1-0.5,4.3l-7.1-0.9l0.1-5
				c0,0-4.4,1.7-6.1,1.5c0,0-2-1.2-0.9-2.7c0,0,8.2-3.3,9.4-3c0,0,0.7,1.1,1.8,1.1C16.3,11.1,16.7,10.6,16.7,10.6z"/>
			<g>
				<path class="st11" d="M12.5,10c0,0,0.4,1.5,2.6,1.8c2.1,0.3,2.5-1,2.5-1"/>
				<line class="st11" x1="10.9" y1="18.2" x2="18" y2="19"/>
			</g>
			<polygon class="st12" points="11,14.3 18,20.2 10.9,19.3 			"/>
		</g>
	</g>
	<g>
		<path class="st13" d="M19.9,17.1L19.9,17.1c-1.2-0.2-2-1.4-1.6-2.6l0.9-2.6l2.9,0.4l0,2.8C22.1,16.4,21.1,17.3,19.9,17.1z"/>
		<path class="st1" d="M19.1,14.5c0,0-1.9-2.5-1.5-2.6c0.2-0.1,0.8,0.3,1.2,0.5c0.2,0.1,0.4,0,0.4-0.2c0.1-0.7,0.2-1.9,0.3-2.8
			c0.1-1.3,0.4-1.3,0.7,0.9c0.2,2.2,0.4-1.9,0.6-1.8c0.3,0,0.2,2.3,0.4,2.4c0.2,0.1,0.3-2.2,0.7-2.2c0.5-0.1,0,2.2,0.2,2.4
			c0.1,0.1,0.4-1.5,0.6-1.5c0.7,0-0.5,4.9-0.7,5.2c0,0,0,0,0,0c0,0-0.4,0.7-1.6,0.6C20.4,15.3,19.6,15.3,19.1,14.5z"/>
	</g>
	<g>
		<g>
			<path class="st14" d="M12.5,12.6L12.5,12.6c-0.5,0-0.7-0.5-0.7-1V6.8h1.7v4.9C13.5,12.2,13,12.6,12.5,12.6z"/>
			<path class="st15" d="M12.2,12.7L12.2,12.7c-0.5,0-0.9-0.4-0.9-0.9V6.9h1.7v4.9C13.1,12.3,12.7,12.7,12.2,12.7z"/>
		</g>
		<path class="st1" d="M12.5,11.4c0-0.1,1.3-0.6,1.2-0.8c-0.2-0.2-1.4,0.4-1.4,0.3c0-0.2,1.2-0.8,1.1-0.9c-0.1-0.2-2.2,0.9-1.1,0.2
			c1-0.7,0.9-0.9,0.2-0.6c-0.5,0.2-1.1,0.5-1.5,0.7c-0.1,0.1-0.3,0-0.2-0.1c0-0.3,0-0.7-0.1-0.8c-0.2-0.1-0.9,1.5-0.9,1.5s0,0,0,0
			c-0.4-0.1-3.1,0.7-4.9,1.5c-1.1,0.5-1.8,1.5-1.2,2.5l0.1,0.2c0.6,1.1,2.4,1.1,3.4,0.3c1.4-1.1,3.1-2.6,3.3-3c0,0,0,0,0,0
			c0.2,0,3-0.8,2.8-1.2C13.4,11.2,12.5,11.5,12.5,11.4z"/>
	</g>
	<g>
		<g>
			<path class="st14" d="M12,3.1c0.4,0.3,1.1,1.1,1.8,1.9c0.3,0.3,0.5,0.7,0.8,0.9c0.4,0.6,0.6,1.2,0.4,1.9l0,0
				c-0.2,0.5-0.6,1-1.2,1.2c-0.2,0.1-0.5,0.2-0.7,0.3c-1.5,0.6-3.6,1.2-4.3,1.1C8.6,10.4,10.2,1.7,12,3.1z"/>
			<path class="st15" d="M12.9,9.3c0.3-0.1,0.5-0.2,0.7-0.3c0.6-0.3,1-0.7,1.2-1.2l0,0c0.2-0.6,0.1-1.3-0.4-1.9
				c-0.2-0.3-0.5-0.6-0.8-0.9C13.8,5,15.3,7.5,12.9,9.3z"/>
		</g>
		<g>
			<path class="st4" d="M12.9,7c-0.5,2.5-2.8,4.1-5,3.7C6.4,10.5,5,8.1,5.5,5.6c0.5-2.5,2.2-4.1,4.3-3.7C12.1,2.3,13.4,4.5,12.9,7z"
				/>
			<path class="st14" d="M12.5,6.9C12,9.1,10,10.5,8,10.2C6.7,10,5.4,7.9,5.9,5.7c0.5-2.2,1.9-3.6,3.8-3.3C11.7,2.7,13,4.7,12.5,6.9
				z"/>
		</g>
		<g>
			<path class="st4" d="M9.5,4.6l3.1,0.7c0,0,0.6,1.5-0.8,3.3L8.8,7.7L9.5,4.6z"/>
			<path class="st15" d="M10.4,6.4c-0.2,0.9-0.9,1.4-1.6,1.3C8.3,7.6,7.9,6.8,8.1,5.9c0.2-0.9,0.7-1.4,1.4-1.3
				C10.1,4.8,10.5,5.5,10.4,6.4z"/>
		</g>
	</g>
	<g>
		<line class="st16" x1="6.2" y1="0.8" x2="6.7" y2="1.6"/>
		<line class="st16" x1="7.6" y1="0" x2="7.8" y2="1.3"/>
		<line class="st16" x1="4.8" y1="2" x2="6.1" y2="2.4"/>
	</g>
</g>
</svg>
